<svg width="201" height="205" viewBox="0 0 201 205" fill="none" xmlns="http://www.w3.org/2000/svg">
<path fill-rule="evenodd" clip-rule="evenodd" d="M184.336 2.0504C175.084 5.79704 129.415 27.0358 96.0753 93.3323C87.533 110.307 61.5089 161.815 6.90283 183.927C1.46036 186.131 -1.13069 192.249 1.1464 197.873C3.35004 203.317 9.46692 205.908 14.9094 203.704C21.8032 200.912 37.9492 194.374 56.6384 178.992C79.3488 160.504 98.9396 134.831 114.906 102.813C131.882 69.1181 152.186 48.8586 166.241 37.6764C179.644 26.9695 190.092 22.5272 192.451 21.5722C192.813 21.4253 192.813 21.4253 192.995 21.3518C193.176 21.2783 193.358 21.2049 193.539 21.1314C198.8 19.001 201.465 13.0648 199.516 7.72962C197.494 2.21304 191.411 -0.814669 185.895 1.2078C185.787 1.4627 185.243 1.68309 184.336 2.0504Z" fill="#E5E8EE"/>
</svg>
