<svg width="277" height="49" viewBox="0 0 277 49" fill="none" xmlns="http://www.w3.org/2000/svg">
<path fill-rule="evenodd" clip-rule="evenodd" d="M8.11113 9.67267C7.20405 10.04 6.65978 10.2604 6.47837 10.3338C1.10935 12.7192 -1.15338 19.1262 1.23168 24.4959C3.54328 29.6841 9.58673 32.094 14.8478 29.9636C15.0292 29.8901 15.2106 29.8167 15.392 29.7432C15.392 29.7432 15.5734 29.6697 15.7549 29.5963C17.9318 28.7147 28.5274 24.6353 45.7841 22.9268C63.6585 21.1794 92.41 21.7852 127.789 34.0676C161.712 45.8836 193.57 50.511 222.818 48.1704C246.943 46.2149 263.089 39.6767 269.983 36.8851C275.425 34.6811 278.016 28.5635 275.813 23.1204C273.609 17.6773 267.419 14.9045 261.976 17.1084C248.37 22.6181 207.37 39.2209 134.901 14.0818C64.9421 -10.5954 17.3633 5.92603 8.11113 9.67267Z" fill="#E5E8EE"/>
</svg>
