<svg width="277" height="49" viewBox="0 0 277 49" fill="none" xmlns="http://www.w3.org/2000/svg">
<path fill-rule="evenodd" clip-rule="evenodd" d="M8.33182 9.242C7.42475 9.60932 6.88051 9.82971 6.69909 9.90317C1.33008 12.2885 -0.932677 18.6956 1.45238 24.0652C3.76398 29.2534 9.8074 31.6634 15.0685 29.5329C15.2499 29.4595 15.4313 29.386 15.6127 29.3125C15.6127 29.3125 15.7941 29.2391 15.9755 29.1656C18.1525 28.2841 28.7481 24.2046 46.0048 22.4962C63.8792 20.7487 92.6306 21.3546 128.01 33.6369C161.933 45.4529 193.791 50.0804 223.039 47.7398C247.164 45.7843 263.31 39.246 270.203 36.4544C275.646 34.2505 278.237 28.1329 276.033 22.6898C273.83 17.2467 267.639 14.4738 262.197 16.6777C248.591 22.1875 207.591 38.7903 135.122 13.6511C65.1627 -11.026 17.584 5.49537 8.33182 9.242Z" fill="#E5E8EE"/>
</svg>
