<svg width="200" height="204" viewBox="0 0 200 204" fill="none" xmlns="http://www.w3.org/2000/svg">
<path fill-rule="evenodd" clip-rule="evenodd" d="M184.115 1.48105C174.863 5.22768 129.194 26.4665 95.8545 92.763C87.3122 109.738 61.2881 161.246 6.68203 183.358C1.23956 185.562 -1.35151 191.68 0.925585 197.304C3.12923 202.747 9.24612 205.339 14.6886 203.135C21.5824 200.343 37.7284 193.805 56.4176 178.423C79.128 159.934 98.7189 134.262 114.685 102.243C131.661 68.5487 151.966 48.2892 166.02 37.107C179.423 26.4002 189.871 21.9579 192.23 21.0028C192.593 20.8559 192.593 20.8559 192.774 20.7824C192.956 20.709 193.137 20.6355 193.318 20.562C198.579 18.4316 201.244 12.4954 199.295 7.16027C197.273 1.64369 191.191 -1.38404 185.675 0.638434C185.567 0.893335 185.022 1.11373 184.115 1.48105Z" fill="#FFE1E1"/>
</svg>
