<svg width="277" height="49" viewBox="0 0 277 49" fill="none" xmlns="http://www.w3.org/2000/svg">
<path fill-rule="evenodd" clip-rule="evenodd" d="M8.07206 9.0296C7.16498 9.39692 6.62073 9.61731 6.43931 9.69078C1.0703 12.0761 -1.19244 18.4831 1.19261 23.8528C3.50422 29.041 9.54765 31.451 14.8087 29.3205C14.9901 29.2471 15.1715 29.1736 15.353 29.1001C15.353 29.1001 15.5344 29.0267 15.7158 28.9532C17.8928 28.0716 28.4883 23.9922 45.745 22.2837C63.6194 20.5363 92.3709 21.1421 127.75 33.4245C161.855 45.167 193.786 49.9759 222.961 47.4539C247.085 45.4984 263.231 38.9601 270.125 36.1685C275.568 33.9646 278.159 27.847 275.955 22.4039C273.751 16.9608 267.561 14.1879 262.119 16.3918C248.512 21.9016 207.513 38.5043 135.044 13.3652C64.903 -11.2385 17.3243 5.28297 8.07206 9.0296Z" fill="#FFE1E1"/>
</svg>
