<svg width="41" height="40" viewBox="0 0 41 40" fill="none" xmlns="http://www.w3.org/2000/svg">
<path d="M21.1666 37.9166H7.13324C4.51658 37.9166 2.36658 35.8167 2.36658 33.2167V8.48332C2.36658 5.93332 3.31658 3.94999 5.04991 2.86665C6.79991 1.76665 9.06658 1.79999 11.4166 2.96665L18.8166 6.59999C20.8332 7.59999 22.4166 10.1167 22.4166 12.35V36.6666C22.4166 37.35 21.8499 37.9166 21.1666 37.9166ZM7.93324 4.58332C7.34991 4.58332 6.81658 4.71665 6.36658 4.99999C5.39991 5.59999 4.86658 6.84999 4.86658 8.48332V33.2167C4.86658 34.4333 5.88324 35.4166 7.13324 35.4166H19.9166V12.35C19.9166 11.0667 18.8832 9.41665 17.6999 8.84999L10.2999 5.21665C9.44991 4.79999 8.64991 4.58332 7.93324 4.58332Z" fill="#1A1A1A"/>
<path d="M31.6833 37.9167H21.1666C20.4833 37.9167 19.9166 37.35 19.9166 36.6667V17.3667C19.9166 16.9833 20.0833 16.6333 20.3833 16.4C20.6833 16.1667 21.05 16.0667 21.4333 16.15L22.2166 16.3167L33.1166 18.75C36.4333 19.4833 38.1 21.4333 38.2 24.75C38.2166 24.75 38.2166 24.9167 38.2166 25.1V31.4C38.2 35.6667 35.95 37.9167 31.6833 37.9167ZM22.4166 35.4167H31.6833C34.6166 35.4167 35.7 34.3333 35.7 31.4V24.9667C35.6166 22.6833 34.75 21.6667 32.5666 21.1833L22.4166 18.9167V35.4167Z" fill="#1A1A1A"/>
<path d="M15.2832 16.25H9.49988C8.81654 16.25 8.24988 15.6833 8.24988 15C8.24988 14.3167 8.81654 13.75 9.49988 13.75H15.2832C15.9665 13.75 16.5332 14.3167 16.5332 15C16.5332 15.6833 15.9832 16.25 15.2832 16.25Z" fill="#1A1A1A"/>
<path d="M15.2832 22.9166H9.49988C8.81654 22.9166 8.24988 22.35 8.24988 21.6666C8.24988 20.9833 8.81654 20.4166 9.49988 20.4166H15.2832C15.9665 20.4166 16.5332 20.9833 16.5332 21.6666C16.5332 22.35 15.9832 22.9166 15.2832 22.9166Z" fill="#1A1A1A"/>
<path d="M25.7 29.5834C22.95 29.5834 20.7 27.3334 20.7 24.5834V17.5334C20.7 17.15 20.8666 16.8 21.1666 16.55C21.4666 16.3 21.85 16.2167 22.2166 16.3L29.7166 17.9834C30.2833 18.1167 30.6999 18.6167 30.6999 19.2V24.5667C30.6999 27.3334 28.4666 29.5834 25.7 29.5834ZM23.2 19.1V24.5834C23.2 25.9667 24.3166 27.0834 25.7 27.0834C27.0833 27.0834 28.1999 25.9667 28.1999 24.5834V20.2167L23.2 19.1Z" fill="#1A1A1A"/>
<path d="M33.2 29.5833C30.45 29.5833 28.2 27.3333 28.2 24.5833V19.2166C28.2 18.8333 28.3666 18.4833 28.6666 18.25C28.9666 18.0166 29.35 17.9166 29.7166 18L33.1 18.75C36.4166 19.4833 38.0833 21.4333 38.1833 24.75C38.1833 24.7833 38.1833 24.8166 38.1833 24.85C38.0499 27.5 35.8666 29.5833 33.2 29.5833ZM30.7 20.7666V24.5833C30.7 25.9666 31.8166 27.0833 33.2 27.0833C34.5166 27.0833 35.6 26.0666 35.6833 24.7666C35.6 22.6666 34.7333 21.6666 32.5666 21.1833L30.7 20.7666Z" fill="#1A1A1A"/>
</svg>
