<svg width="41" height="40" viewBox="0 0 41 40" fill="none" xmlns="http://www.w3.org/2000/svg">
<path d="M20.9327 19.3667C20.8827 19.3667 20.8493 19.3667 20.7993 19.3667C20.716 19.35 20.5993 19.35 20.4993 19.3667C15.666 19.2167 12.016 15.4167 12.016 10.7334C12.016 5.96671 15.8993 2.08337 20.666 2.08337C25.4327 2.08337 29.316 5.96671 29.316 10.7334C29.2993 15.4167 25.6327 19.2167 20.9827 19.3667C20.966 19.3667 20.9493 19.3667 20.9327 19.3667ZM20.666 4.58337C17.2827 4.58337 14.516 7.35004 14.516 10.7334C14.516 14.0667 17.116 16.75 20.4327 16.8667C20.516 16.85 20.7493 16.85 20.966 16.8667C24.2327 16.7167 26.7993 14.0334 26.816 10.7334C26.816 7.35004 24.0493 4.58337 20.666 4.58337Z" fill="#292D32"/>
<path d="M20.9493 37.5833C17.6826 37.5833 14.3993 36.75 11.916 35.0833C9.59931 33.55 8.33264 31.45 8.33264 29.1666C8.33264 26.8833 9.59931 24.7666 11.916 23.2166C16.916 19.9 25.016 19.9 29.9826 23.2166C32.2826 24.75 33.566 26.85 33.566 29.1333C33.566 31.4166 32.2993 33.5333 29.9826 35.0833C27.4826 36.75 24.216 37.5833 20.9493 37.5833ZM13.2993 25.3166C11.6993 26.3833 10.8326 27.75 10.8326 29.1833C10.8326 30.6 11.716 31.9666 13.2993 33.0166C17.4493 35.8 24.4493 35.8 28.5993 33.0166C30.1993 31.95 31.066 30.5833 31.066 29.15C31.066 27.7333 30.1826 26.3666 28.5993 25.3166C24.4493 22.55 17.4493 22.55 13.2993 25.3166Z" fill="#292D32"/>
</svg>
