<svg width="41" height="40" viewBox="0 0 41 40" fill="none" xmlns="http://www.w3.org/2000/svg">
<path d="M34.7 21.7834C34.0666 21.7834 33.5333 21.3 33.45 20.6667C33.05 16.9 31.0166 13.4834 27.8833 11.3167C27.3166 10.9167 27.1833 10.15 27.5666 9.58338C27.9666 9.01671 28.75 8.88338 29.3 9.26671C33.0333 11.85 35.4333 15.9167 35.9166 20.4C35.9833 21.0834 35.5 21.7 34.8 21.7834C34.7833 21.7834 34.7333 21.7834 34.7 21.7834Z" fill="#1A1A1A"/>
<path d="M6.14988 21.8667C6.09988 21.8667 6.06655 21.8667 6.01655 21.8667C5.33322 21.7834 4.83322 21.1667 4.89988 20.4834C5.34988 16 7.73322 11.95 11.4166 9.33336C11.9832 8.93336 12.7666 9.06669 13.1665 9.63336C13.5666 10.2 13.4332 10.9834 12.8666 11.3834C9.76655 13.5667 7.76655 16.9834 7.38322 20.75C7.33322 21.3834 6.78322 21.8667 6.14988 21.8667Z" fill="#1A1A1A"/>
<path d="M20.4332 37.6833C17.9666 37.6833 15.6166 37.1166 13.4166 36.0166C12.7999 35.7 12.5499 34.95 12.8666 34.3333C13.1832 33.7166 13.9332 33.4666 14.5499 33.7833C18.1499 35.6 22.4832 35.6333 26.1166 33.8833C26.7332 33.5833 27.4832 33.85 27.7832 34.4666C28.0832 35.0833 27.8166 35.8333 27.1999 36.1333C25.0666 37.1666 22.7999 37.6833 20.4332 37.6833Z" fill="#1A1A1A"/>
<path d="M20.4333 14.0667C17.1833 14.0667 14.5499 11.4334 14.5499 8.18338C14.5499 4.93338 17.1833 2.30005 20.4333 2.30005C23.6833 2.30005 26.3166 4.93338 26.3166 8.18338C26.3166 11.4334 23.6666 14.0667 20.4333 14.0667ZM20.4333 4.81672C18.5666 4.81672 17.0499 6.33338 17.0499 8.20005C17.0499 10.0667 18.5666 11.5834 20.4333 11.5834C22.2999 11.5834 23.8166 10.0667 23.8166 8.20005C23.8166 6.33338 22.2833 4.81672 20.4333 4.81672Z" fill="#1A1A1A"/>
<path d="M8.38321 34.45C5.13321 34.45 2.49988 31.8167 2.49988 28.5667C2.49988 25.3333 5.13321 22.6833 8.38321 22.6833C11.6332 22.6833 14.2665 25.3167 14.2665 28.5667C14.2665 31.8 11.6332 34.45 8.38321 34.45ZM8.38321 25.1833C6.51654 25.1833 4.99988 26.7 4.99988 28.5667C4.99988 30.4333 6.51654 31.95 8.38321 31.95C10.2499 31.95 11.7665 30.4333 11.7665 28.5667C11.7665 26.7 10.2499 25.1833 8.38321 25.1833Z" fill="#1A1A1A"/>
<path d="M32.2832 34.45C29.0332 34.45 26.3999 31.8167 26.3999 28.5667C26.3999 25.3333 29.0332 22.6833 32.2832 22.6833C35.5332 22.6833 38.1666 25.3167 38.1666 28.5667C38.1499 31.8 35.5166 34.45 32.2832 34.45ZM32.2832 25.1833C30.4166 25.1833 28.8999 26.7 28.8999 28.5667C28.8999 30.4333 30.4166 31.95 32.2832 31.95C34.1499 31.95 35.6666 30.4333 35.6666 28.5667C35.6499 26.7 34.1499 25.1833 32.2832 25.1833Z" fill="#1A1A1A"/>
</svg>
