<svg width="41" height="40" viewBox="0 0 41 40" fill="none" xmlns="http://www.w3.org/2000/svg">
<path d="M20.6833 28.3334C19.2666 28.3334 17.8333 27.9667 16.7166 27.2501L6.68328 20.7001C4.81662 19.4834 3.69995 17.4334 3.69995 15.2001C3.69995 12.9667 4.81662 10.9167 6.68328 9.70006L16.7333 3.16672C18.9666 1.71672 22.45 1.71672 24.6666 3.18339L34.65 9.73339C36.5 10.9501 37.6166 13.0001 37.6166 15.2167C37.6166 17.4334 36.5 19.4834 34.65 20.7001L24.6666 27.2501C23.55 27.9834 22.1166 28.3334 20.6833 28.3334ZM20.6833 4.58339C19.7333 4.58339 18.7833 4.80006 18.1 5.26672L8.06662 11.8001C6.89995 12.5667 6.21662 13.8001 6.21662 15.2001C6.21662 16.6001 6.88328 17.8334 8.06662 18.6001L18.1 25.1501C19.4833 26.0501 21.9166 26.0501 23.3 25.1501L33.2833 18.6001C34.45 17.8334 35.1166 16.6001 35.1166 15.2001C35.1166 13.8001 34.45 12.5667 33.2833 11.8001L23.3 5.25006C22.6 4.81672 21.65 4.58339 20.6833 4.58339Z" fill="#1A1A1A"/>
<path d="M20.6666 37.9167C19.9333 37.9167 19.1833 37.8167 18.5833 37.6167L13.2666 35.85C10.75 35.0167 8.76664 32.2667 8.78331 29.6167L8.79997 21.8C8.79997 21.1167 9.36664 20.55 10.05 20.55C10.7333 20.55 11.3 21.1167 11.3 21.8L11.2833 29.6167C11.2833 31.1834 12.5833 32.9834 14.0666 33.4834L19.3833 35.25C20.05 35.4667 21.2833 35.4667 21.95 35.25L27.2666 33.4834C28.75 32.9834 30.05 31.1834 30.05 29.6334V21.9C30.05 21.2167 30.6166 20.65 31.3 20.65C31.9833 20.65 32.55 21.2167 32.55 21.9V29.6334C32.55 32.2834 30.5833 35.0167 28.0666 35.8667L22.75 37.6334C22.15 37.8167 21.4 37.9167 20.6666 37.9167Z" fill="#1A1A1A"/>
<path d="M36.3333 26.25C35.6499 26.25 35.0833 25.6833 35.0833 25V15C35.0833 14.3167 35.6499 13.75 36.3333 13.75C37.0166 13.75 37.5833 14.3167 37.5833 15V25C37.5833 25.6833 37.0166 26.25 36.3333 26.25Z" fill="#1A1A1A"/>
</svg>
