<svg width="40" height="40" viewBox="0 0 40 40" fill="none" xmlns="http://www.w3.org/2000/svg">
<path d="M27.8333 32.8833H12.1667C10.9333 32.8833 9.68334 32 9.26667 30.85L2.36667 11.5333C1.51667 9.09999 2.13334 7.98332 2.8 7.48332C3.46667 6.98332 4.71667 6.68332 6.81667 8.18332L13.3167 12.8333C13.5167 12.95 13.7 13 13.8333 12.9667C13.9833 12.9167 14.1 12.7833 14.1833 12.55L17.1167 4.73332C18 2.39999 19.3 2.04999 20 2.04999C20.7 2.04999 22 2.39999 22.8833 4.73332L25.8167 12.55C25.9 12.7667 26.0167 12.9167 26.1667 12.9667C26.3167 13.0167 26.5 12.9667 26.6833 12.8167L32.7833 8.46665C35.0167 6.86665 36.3167 7.18332 37.0333 7.69999C37.7333 8.23332 38.3833 9.41665 37.4667 12L30.7333 30.85C30.3167 32 29.0667 32.8833 27.8333 32.8833ZM4.46667 9.68332C4.5 9.91665 4.56667 10.25 4.73334 10.6833L11.6333 30C11.7 30.1667 12 30.3833 12.1667 30.3833H27.8333C28.0167 30.3833 28.3167 30.1667 28.3667 30L35.1 11.1667C35.3333 10.5333 35.4 10.1 35.4167 9.84999C35.1667 9.93332 34.7833 10.1167 34.2333 10.5167L28.1333 14.8667C27.3 15.45 26.3167 15.6333 25.4333 15.3667C24.55 15.1 23.8333 14.4 23.4667 13.45L20.5333 5.63332C20.3167 5.04999 20.1167 4.76665 20 4.63332C19.8833 4.76665 19.6833 5.04999 19.4667 5.61665L16.5333 13.4333C16.1833 14.3833 15.4667 15.0833 14.5667 15.35C13.6833 15.6167 12.6833 15.4333 11.8667 14.85L5.36667 10.2C4.98334 9.93332 4.68334 9.76665 4.46667 9.68332Z" fill="white"/>
<path d="M29.1666 37.9167H10.8333C10.15 37.9167 9.58331 37.35 9.58331 36.6667C9.58331 35.9834 10.15 35.4167 10.8333 35.4167H29.1666C29.85 35.4167 30.4166 35.9834 30.4166 36.6667C30.4166 37.35 29.85 37.9167 29.1666 37.9167Z" fill="white"/>
<path d="M24.1666 24.5833H15.8333C15.15 24.5833 14.5833 24.0166 14.5833 23.3333C14.5833 22.65 15.15 22.0833 15.8333 22.0833H24.1666C24.85 22.0833 25.4166 22.65 25.4166 23.3333C25.4166 24.0166 24.85 24.5833 24.1666 24.5833Z" fill="white"/>
</svg>
