<svg width="40" height="40" viewBox="0 0 40 40" fill="none" xmlns="http://www.w3.org/2000/svg">
<g clip-path="url(#clip0_2812_2397)">
<path d="M31.5834 24.6414C30.7984 23.0048 27.99 20.7331 25.2767 18.5381C23.7634 17.3147 22.3334 16.1581 21.4217 15.2464C21.1934 15.0164 20.8517 14.9431 20.5501 15.0514C19.9884 15.2548 19.6417 15.4114 19.3684 15.5331C18.9518 15.7197 18.8118 15.7831 18.2501 15.8397C18.0017 15.8647 17.7784 15.9981 17.6401 16.2047C16.4617 17.9663 15.2417 17.8163 14.4267 17.5431C14.1667 17.4564 14.1201 17.3447 14.0951 17.2381C13.9201 16.5064 14.7984 14.8031 15.9367 13.6647C18.6451 10.9547 20.0417 10.2763 22.9917 11.5947C26.3384 13.0913 29.6917 14.2631 29.7251 14.2747C30.1634 14.4263 30.6351 14.1963 30.7867 13.7613C30.9367 13.3263 30.7084 12.8513 30.2734 12.6997C30.24 12.688 26.9534 11.5397 23.6734 10.0713C19.8517 8.36297 17.755 9.48797 14.76 12.4847C13.62 13.6247 12.0716 15.9313 12.4716 17.6231C12.6433 18.3431 13.15 18.8764 13.9033 19.1247C15.7916 19.7481 17.5149 19.1513 18.7983 17.4481C19.3283 17.3664 19.6166 17.2464 20.0499 17.0514C20.2066 16.9814 20.3899 16.8998 20.6333 16.8014C21.5866 17.6964 22.8733 18.7381 24.2283 19.8331C26.6783 21.8147 29.4566 24.0614 30.0816 25.3614C30.39 26.0031 30.0583 26.4214 29.8333 26.6131C29.5033 26.8964 29.0516 26.9864 28.8066 26.8147C28.5366 26.6297 28.185 26.6181 27.9066 26.7847C27.6266 26.9513 27.47 27.2663 27.505 27.5897C27.5616 28.1197 27.0766 28.4231 26.8666 28.5281C26.3333 28.7981 25.7766 28.7514 25.5683 28.5581C25.3349 28.3414 24.9999 28.2781 24.7033 28.3881C24.4066 28.4997 24.1999 28.7731 24.1699 29.0897C24.1199 29.6363 23.7149 30.1613 23.1866 30.3663C22.9316 30.463 22.5616 30.5213 22.2299 30.218C22.0233 30.0313 21.7366 29.9596 21.4683 30.0246C21.1966 30.0913 20.9783 30.288 20.8833 30.5496C20.8516 30.633 20.7799 30.833 19.9999 30.833C19.4449 30.833 18.4466 30.458 17.9583 30.1346C17.3733 29.7496 13.7049 27.013 10.5366 24.3596C10.0916 23.9846 9.32163 23.1813 8.64163 22.4713C8.03827 21.8413 7.48663 21.2696 7.20327 21.0296C6.84827 20.7296 6.32327 20.7746 6.02827 21.128C5.73163 21.4796 5.77491 22.0063 6.12663 22.303C6.38499 22.5213 6.88499 23.0496 7.43663 23.6246C8.17999 24.4013 8.94827 25.2046 9.46499 25.638C12.5684 28.2363 16.2984 31.0413 17.0416 31.5296C17.655 31.933 18.9766 32.4996 20 32.4996C20.8216 32.4996 21.4534 32.3113 21.8916 31.943C22.4783 32.1713 23.145 32.173 23.7866 31.923C24.545 31.6296 25.1683 31.038 25.5216 30.3213C26.1783 30.4613 26.93 30.363 27.6133 30.0197C28.2816 29.6831 28.7649 29.1681 29.0049 28.5663C29.6683 28.6013 30.3516 28.3663 30.9166 27.8813C31.8734 27.0631 32.1366 25.7898 31.5834 24.6414Z" fill="#1A1A1A" stroke="#1A1A1A" stroke-width="0.5"/>
<path d="M16.6666 10.833H9.16661C8.70661 10.833 8.33325 11.2064 8.33325 11.6664C8.33325 12.1264 8.70661 12.4998 9.16661 12.4998H16.6666C17.1266 12.4998 17.5 12.1264 17.5 11.6664C17.5 11.2064 17.1266 10.833 16.6666 10.833Z" fill="black" stroke="#1A1A1A" stroke-width="0.5"/>
<path d="M34.025 22.868C33.7667 22.4864 33.25 22.3814 32.8684 22.6414L30.4317 24.278C30.0501 24.5347 29.9484 25.053 30.2051 25.4347C30.3667 25.673 30.6301 25.803 30.8984 25.803C31.0568 25.803 31.2184 25.758 31.3618 25.6614L33.7984 24.0248C34.18 23.768 34.2817 23.2498 34.025 22.868Z" fill="black" stroke="#1A1A1A" stroke-width="0.5"/>
<path d="M28.8516 26.8448C28.255 26.3748 25.5866 23.6431 23.9366 21.9231C23.6183 21.5898 23.09 21.5781 22.7583 21.8981C22.4249 22.2165 22.4149 22.7448 22.7333 23.0765C23.1616 23.5231 26.9399 27.4615 27.8183 28.1549C27.9699 28.2749 28.1533 28.3332 28.3333 28.3332C28.5783 28.3332 28.8233 28.2232 28.9899 28.0149C29.275 27.6548 29.2134 27.1298 28.8516 26.8448Z" fill="black" stroke="#1A1A1A" stroke-width="0.5"/>
<path d="M25.5217 28.5164C24.5233 27.718 22.015 25.053 21.4483 24.4364C21.135 24.0964 20.61 24.0764 20.27 24.3864C19.9316 24.698 19.9083 25.2264 20.22 25.5648C20.25 25.5964 23.2433 28.8281 24.48 29.8181C24.6333 29.9397 24.8183 29.9997 25 29.9997C25.2433 29.9997 25.4866 29.8914 25.6516 29.6881C25.9384 29.328 25.8801 28.803 25.5217 28.5164Z" fill="black" stroke="#1A1A1A" stroke-width="0.5"/>
<path d="M22.205 30.1948C21.0166 29.1931 18.585 26.6048 18.11 26.0964C17.795 25.7598 17.2666 25.7414 16.9316 26.0564C16.595 26.3714 16.5783 26.898 16.8916 27.2348C17.575 27.9664 19.9016 30.4331 21.13 31.4698C21.2866 31.6014 21.4766 31.6664 21.6666 31.6664C21.9033 31.6664 22.14 31.5648 22.305 31.3698C22.6016 31.0164 22.5566 30.4914 22.205 30.1948Z" fill="black" stroke="#1A1A1A" stroke-width="0.5"/>
<path d="M9.74 9.39477C8.31164 8.04141 2.6 7.60305 0.883359 7.50141C0.646719 7.48977 0.428359 7.56805 0.261719 7.72641C0.095 7.88305 0 8.10305 0 8.33305V23.333C0 23.793 0.373359 24.1664 0.833359 24.1664H5.83336C6.19336 24.1664 6.51336 23.9348 6.625 23.5914C6.74664 23.218 9.61836 14.4048 9.99664 10.0714C10.0184 9.81805 9.925 9.56805 9.74 9.39477ZM5.225 22.4998H1.66664V9.22641C4.345 9.43805 7.235 9.89805 8.285 10.408C7.84336 14.058 5.845 20.543 5.225 22.4998Z" fill="black" stroke="#1A1A1A" stroke-width="0.5"/>
<path d="M39.1666 9.16641C32.6233 9.16641 28.9933 10.8414 28.8416 10.9114C28.625 11.0131 28.4633 11.2014 28.3966 11.4298C28.33 11.6581 28.3633 11.9031 28.4883 12.1064C29.5183 13.7648 32.7433 22.9748 33.3633 25.2214C33.4633 25.5831 33.7916 25.8331 34.1666 25.8331H39.1666C39.6266 25.8331 40 25.4597 40 24.9997V9.99969C40 9.53805 39.6266 9.16641 39.1666 9.16641ZM38.3334 24.1664H34.79C34 21.5931 31.6666 14.8831 30.365 12.1098C31.6366 11.6781 34.3684 10.9364 38.3334 10.8431V24.1664Z" fill="black" stroke="#1A1A1A" stroke-width="0.5"/>
</g>
<defs>
<clipPath id="clip0_2812_2397">
<rect width="40" height="40" fill="white"/>
</clipPath>
</defs>
</svg>
