<svg width="40" height="40" viewBox="0 0 40 40" fill="none" xmlns="http://www.w3.org/2000/svg">
<path d="M15.266 19.3666C15.216 19.3666 15.1827 19.3666 15.1327 19.3666C15.0494 19.35 14.9327 19.35 14.8327 19.3666C9.99936 19.2166 6.34937 15.4166 6.34937 10.7333C6.34937 5.96665 10.2327 2.08331 14.9994 2.08331C19.766 2.08331 23.6494 5.96665 23.6494 10.7333C23.6327 15.4166 19.966 19.2166 15.316 19.3666C15.2994 19.3666 15.2827 19.3666 15.266 19.3666ZM14.9994 4.58331C11.616 4.58331 8.84937 7.34998 8.84937 10.7333C8.84937 14.0666 11.4494 16.75 14.766 16.8666C14.866 16.85 15.0827 16.85 15.2994 16.8666C18.566 16.7166 21.1327 14.0333 21.1494 10.7333C21.1494 7.34998 18.3827 4.58331 14.9994 4.58331Z" fill="#1A1A1A"/>
<path d="M27.566 19.5834C27.516 19.5834 27.466 19.5834 27.416 19.5667C26.7326 19.6334 26.0326 19.15 25.966 18.4667C25.8993 17.7834 26.316 17.1667 26.9993 17.0834C27.1993 17.0667 27.416 17.0667 27.5993 17.0667C30.0326 16.9334 31.9326 14.9334 31.9326 12.4834C31.9326 9.95002 29.8826 7.90002 27.3493 7.90002C26.666 7.91669 26.0993 7.35002 26.0993 6.66669C26.0993 5.98335 26.666 5.41669 27.3493 5.41669C31.2493 5.41669 34.4326 8.60002 34.4326 12.5C34.4326 16.3334 31.4326 19.4334 27.616 19.5834C27.5993 19.5834 27.5826 19.5834 27.566 19.5834Z" fill="#1A1A1A"/>
<path d="M15.2827 37.5834C12.016 37.5834 8.73268 36.75 6.24935 35.0834C3.93268 33.55 2.66602 31.45 2.66602 29.1667C2.66602 26.8834 3.93268 24.7667 6.24935 23.2167C11.2493 19.9 19.3493 19.9 24.316 23.2167C26.616 24.75 27.8993 26.85 27.8993 29.1334C27.8993 31.4167 26.6327 33.5334 24.316 35.0834C21.816 36.75 18.5493 37.5834 15.2827 37.5834ZM7.63268 25.3167C6.03268 26.3834 5.16602 27.75 5.16602 29.1834C5.16602 30.6 6.04935 31.9667 7.63268 33.0167C11.7827 35.8 18.7827 35.8 22.9327 33.0167C24.5327 31.95 25.3993 30.5834 25.3993 29.15C25.3993 27.7334 24.516 26.3667 22.9327 25.3167C18.7827 22.55 11.7827 22.55 7.63268 25.3167Z" fill="#1A1A1A"/>
<path d="M30.566 34.5834C29.9826 34.5834 29.466 34.1834 29.3493 33.5834C29.216 32.9 29.6493 32.25 30.316 32.1C31.366 31.8834 32.3326 31.4667 33.0826 30.8834C34.0326 30.1667 34.5493 29.2667 34.5493 28.3167C34.5493 27.3667 34.0326 26.4667 33.0993 25.7667C32.366 25.2 31.4493 24.8 30.366 24.55C29.6993 24.4 29.266 23.7334 29.416 23.05C29.566 22.3834 30.2326 21.95 30.916 22.1C32.3493 22.4167 33.5993 22.9834 34.616 23.7667C36.166 24.9334 37.0493 26.5834 37.0493 28.3167C37.0493 30.05 36.1493 31.7 34.5993 32.8834C33.566 33.6834 32.266 34.2667 30.8326 34.55C30.7326 34.5834 30.6493 34.5834 30.566 34.5834Z" fill="#1A1A1A"/>
</svg>
