<svg width="40" height="40" viewBox="0 0 40 40" fill="none" xmlns="http://www.w3.org/2000/svg">
<path d="M34.3667 21.7833C33.7333 21.7833 33.2 21.3 33.1167 20.6667C32.7167 16.9 30.6833 13.4833 27.55 11.3167C26.9833 10.9167 26.85 10.15 27.2333 9.58334C27.6333 9.01667 28.4167 8.88333 28.9667 9.26667C32.7 11.85 35.1 15.9167 35.5833 20.4C35.65 21.0833 35.1667 21.7 34.4667 21.7833C34.45 21.7833 34.4 21.7833 34.3667 21.7833Z" fill="#1A1A1A"/>
<path d="M5.81669 21.8667C5.76669 21.8667 5.73336 21.8667 5.68336 21.8667C5.00003 21.7833 4.50003 21.1667 4.56669 20.4833C5.01669 16 7.40003 11.95 11.0834 9.33333C11.65 8.93333 12.4334 9.06666 12.8334 9.63333C13.2334 10.2 13.1 10.9833 12.5334 11.3833C9.43336 13.5667 7.43336 16.9833 7.05003 20.75C7.00003 21.3833 6.45003 21.8667 5.81669 21.8667Z" fill="#1A1A1A"/>
<path d="M20.1 37.6833C17.6333 37.6833 15.2833 37.1167 13.0833 36.0167C12.4666 35.7 12.2166 34.95 12.5333 34.3333C12.85 33.7167 13.6 33.4667 14.2166 33.7833C17.8166 35.6 22.15 35.6333 25.7833 33.8833C26.4 33.5833 27.15 33.85 27.45 34.4667C27.75 35.0833 27.4833 35.8333 26.8667 36.1333C24.7333 37.1667 22.4667 37.6833 20.1 37.6833Z" fill="#1A1A1A"/>
<path d="M20.1 14.0667C16.85 14.0667 14.2167 11.4333 14.2167 8.18334C14.2167 4.93334 16.85 2.3 20.1 2.3C23.35 2.3 25.9833 4.93334 25.9833 8.18334C25.9833 11.4333 23.3333 14.0667 20.1 14.0667ZM20.1 4.81667C18.2333 4.81667 16.7167 6.33334 16.7167 8.2C16.7167 10.0667 18.2333 11.5833 20.1 11.5833C21.9667 11.5833 23.4833 10.0667 23.4833 8.2C23.4833 6.33334 21.95 4.81667 20.1 4.81667Z" fill="#1A1A1A"/>
<path d="M8.05002 34.45C4.80002 34.45 2.16669 31.8167 2.16669 28.5667C2.16669 25.3333 4.80002 22.6833 8.05002 22.6833C11.3 22.6833 13.9334 25.3167 13.9334 28.5667C13.9334 31.8 11.3 34.45 8.05002 34.45ZM8.05002 25.1833C6.18335 25.1833 4.66669 26.7 4.66669 28.5667C4.66669 30.4333 6.18335 31.95 8.05002 31.95C9.91669 31.95 11.4334 30.4333 11.4334 28.5667C11.4334 26.7 9.91669 25.1833 8.05002 25.1833Z" fill="#1A1A1A"/>
<path d="M31.95 34.45C28.7 34.45 26.0667 31.8167 26.0667 28.5667C26.0667 25.3333 28.7 22.6833 31.95 22.6833C35.2 22.6833 37.8333 25.3167 37.8333 28.5667C37.8167 31.8 35.1833 34.45 31.95 34.45ZM31.95 25.1833C30.0833 25.1833 28.5666 26.7 28.5666 28.5667C28.5666 30.4333 30.0833 31.95 31.95 31.95C33.8167 31.95 35.3333 30.4333 35.3333 28.5667C35.3167 26.7 33.8167 25.1833 31.95 25.1833Z" fill="#1A1A1A"/>
</svg>
