<svg width="1052" height="499" viewBox="0 0 1052 499" fill="none" xmlns="http://www.w3.org/2000/svg">
<rect width="72" height="72" rx="36" fill="#1A1A1A"/>
<path d="M25.9382 51V47.6591L36.2741 36.9503C37.3778 35.7869 38.2876 34.7678 39.0036 33.8928C39.7294 33.0078 40.2713 32.1676 40.6293 31.3722C40.9872 30.5767 41.1662 29.7315 41.1662 28.8366C41.1662 27.8224 40.9276 26.9474 40.4503 26.2116C39.973 25.4659 39.3217 24.8942 38.4964 24.4964C37.6712 24.0888 36.7415 23.8849 35.7074 23.8849C34.6136 23.8849 33.6591 24.1087 32.8438 24.5561C32.0284 25.0036 31.402 25.6349 30.9645 26.4503C30.527 27.2656 30.3082 28.2202 30.3082 29.3139H25.9084C25.9084 27.4545 26.3359 25.8288 27.1911 24.4368C28.0462 23.0447 29.2195 21.9659 30.7109 21.2003C32.2024 20.4247 33.8977 20.0369 35.7969 20.0369C37.7159 20.0369 39.4063 20.4197 40.8679 21.1854C42.3395 21.941 43.4879 22.9751 44.3132 24.2876C45.1385 25.5902 45.5511 27.0618 45.5511 28.7024C45.5511 29.8359 45.3374 30.9446 44.9098 32.0284C44.4922 33.1122 43.7614 34.3203 42.7173 35.6527C41.6733 36.9751 40.2216 38.581 38.3622 40.4702L32.2919 46.8239V47.0476H46.0433V51H25.9382Z" fill="white"/>
<path opacity="0.1" d="M83.5 32H817.75C946.294 32 1050.5 136.206 1050.5 264.75V264.75C1050.5 393.294 946.294 497.5 817.75 497.5H271.5" stroke="#C10000" stroke-width="2" stroke-linecap="round"/>
</svg>
