<svg width="1581" height="1819" viewBox="0 0 1581 1819" fill="none" xmlns="http://www.w3.org/2000/svg">
<rect x="529" width="72" height="72" rx="36" fill="#1A1A1A"/>
<path d="M554.938 51V47.6591L565.274 36.9503C566.378 35.7869 567.288 34.7678 568.004 33.8928C568.729 33.0078 569.271 32.1676 569.629 31.3722C569.987 30.5767 570.166 29.7315 570.166 28.8366C570.166 27.8224 569.928 26.9474 569.45 26.2116C568.973 25.4659 568.322 24.8942 567.496 24.4964C566.671 24.0888 565.741 23.8849 564.707 23.8849C563.614 23.8849 562.659 24.1087 561.844 24.5561C561.028 25.0036 560.402 25.6349 559.964 26.4503C559.527 27.2656 559.308 28.2202 559.308 29.3139H554.908C554.908 27.4545 555.336 25.8288 556.191 24.4368C557.046 23.0447 558.219 21.9659 559.711 21.2003C561.202 20.4247 562.898 20.0369 564.797 20.0369C566.716 20.0369 568.406 20.4197 569.868 21.1854C571.339 21.941 572.488 22.9751 573.313 24.2876C574.138 25.5902 574.551 27.0618 574.551 28.7024C574.551 29.8359 574.337 30.9446 573.91 32.0284C573.492 33.1122 572.761 34.3203 571.717 35.6527C570.673 36.9751 569.222 38.581 567.362 40.4702L561.292 46.8239V47.0476H575.043V51H554.938Z" fill="white"/>
<path opacity="0.1" d="M612.5 32H1346.75C1475.29 32 1579.5 136.206 1579.5 264.75V264.75C1579.5 393.294 1475.29 497.5 1346.75 497.5H800.5" stroke="#C10000" stroke-width="2" stroke-linecap="round"/>
<rect x="720.5" y="458" width="72" height="72" rx="36" fill="#C10000"/>
<path d="M756.072 509.418C754.024 509.418 752.195 509.065 750.584 508.359C748.983 507.653 747.715 506.673 746.781 505.42C745.856 504.158 745.359 502.696 745.289 501.036H749.972C750.032 501.94 750.335 502.726 750.882 503.392C751.439 504.048 752.165 504.555 753.06 504.913C753.955 505.271 754.949 505.45 756.043 505.45C757.246 505.45 758.31 505.241 759.234 504.824C760.169 504.406 760.9 503.825 761.427 503.079C761.954 502.323 762.217 501.453 762.217 500.469C762.217 499.445 761.954 498.545 761.427 497.769C760.91 496.984 760.149 496.367 759.145 495.92C758.151 495.472 756.947 495.249 755.536 495.249H752.955V491.49H755.536C756.669 491.49 757.663 491.286 758.518 490.879C759.384 490.471 760.06 489.904 760.547 489.178C761.034 488.442 761.278 487.582 761.278 486.598C761.278 485.653 761.064 484.833 760.636 484.137C760.219 483.431 759.622 482.879 758.847 482.482C758.081 482.084 757.176 481.885 756.132 481.885C755.138 481.885 754.208 482.069 753.343 482.437C752.488 482.795 751.792 483.312 751.255 483.988C750.718 484.654 750.43 485.455 750.39 486.389H745.93C745.98 484.739 746.467 483.287 747.392 482.034C748.327 480.781 749.56 479.802 751.091 479.096C752.622 478.39 754.322 478.037 756.192 478.037C758.151 478.037 759.841 478.42 761.263 479.185C762.695 479.941 763.798 480.95 764.574 482.213C765.359 483.476 765.747 484.858 765.737 486.359C765.747 488.07 765.27 489.521 764.305 490.714C763.351 491.908 762.078 492.708 760.487 493.116V493.354C762.516 493.663 764.087 494.468 765.2 495.771C766.324 497.073 766.881 498.689 766.871 500.618C766.881 502.298 766.413 503.805 765.469 505.137C764.534 506.469 763.256 507.518 761.636 508.284C760.015 509.04 758.161 509.418 756.072 509.418Z" fill="white"/>
<path opacity="0.1" d="M711 498H31C14.4314 498 1 511.431 1 528V1048C1 1064.57 14.4315 1078 31 1078H43.9167" stroke="#1A1A1A" stroke-width="2" stroke-linecap="round"/>
<rect x="56" y="1040" width="72" height="72" rx="36" fill="#1A1A1A"/>
<path d="M80.2969 1085.03V1081.31L93.4964 1060.45H96.4347V1065.94H94.5703L85.1293 1080.89V1081.13H103.221V1085.03H80.2969ZM94.7791 1091V1083.9L94.8089 1082.2V1060.45H99.179V1091H94.7791Z" fill="white"/>
<path opacity="0.1" d="M139 1076H808C824.569 1076 838 1089.43 838 1106V1734" stroke="#C10000" stroke-width="2" stroke-linecap="round"/>
<rect x="802" y="1747" width="72" height="72" rx="36" fill="#C10000"/>
<path d="M837.521 1798.42C835.651 1798.42 833.971 1798.06 832.479 1797.34C830.998 1796.62 829.815 1795.62 828.93 1794.36C828.045 1793.1 827.572 1791.66 827.513 1790.04H831.987C832.097 1791.35 832.678 1792.43 833.732 1793.27C834.786 1794.12 836.049 1794.54 837.521 1794.54C838.694 1794.54 839.733 1794.27 840.638 1793.73C841.553 1793.19 842.268 1792.44 842.786 1791.48C843.313 1790.53 843.576 1789.44 843.576 1788.22C843.576 1786.97 843.308 1785.86 842.771 1784.89C842.234 1783.92 841.493 1783.15 840.548 1782.59C839.614 1782.04 838.54 1781.75 837.327 1781.74C836.402 1781.74 835.472 1781.9 834.538 1782.22C833.603 1782.54 832.847 1782.96 832.271 1783.47L828.05 1782.85L829.765 1767.45H846.559V1771.41H833.598L832.629 1779.95H832.808C833.404 1779.38 834.195 1778.89 835.179 1778.51C836.173 1778.12 837.237 1777.92 838.371 1777.92C840.23 1777.92 841.886 1778.37 843.337 1779.25C844.799 1780.14 845.947 1781.35 846.783 1782.88C847.628 1784.4 848.045 1786.15 848.036 1788.13C848.045 1790.11 847.598 1791.87 846.693 1793.42C845.798 1794.97 844.555 1796.2 842.964 1797.09C841.384 1797.98 839.569 1798.42 837.521 1798.42Z" fill="white"/>
</svg>
