<svg width="734" height="742" viewBox="0 0 734 742" fill="none" xmlns="http://www.w3.org/2000/svg">
<rect x="662" y="670" width="72" height="72" rx="36" fill="#C10000"/>
<path d="M697.521 721.418C695.651 721.418 693.971 721.06 692.479 720.344C690.998 719.618 689.815 718.624 688.93 717.361C688.045 716.098 687.572 714.656 687.513 713.036H691.987C692.097 714.348 692.678 715.427 693.732 716.272C694.786 717.117 696.049 717.54 697.521 717.54C698.694 717.54 699.733 717.271 700.638 716.734C701.553 716.188 702.268 715.437 702.786 714.482C703.313 713.528 703.576 712.439 703.576 711.216C703.576 709.973 703.308 708.864 702.771 707.89C702.234 706.915 701.493 706.15 700.548 705.593C699.614 705.036 698.54 704.753 697.327 704.743C696.402 704.743 695.472 704.902 694.538 705.22C693.603 705.538 692.847 705.956 692.271 706.473L688.05 705.847L689.765 690.455H706.559V694.407H693.598L692.629 702.953H692.808C693.404 702.376 694.195 701.894 695.179 701.506C696.173 701.119 697.237 700.925 698.371 700.925C700.23 700.925 701.886 701.367 703.337 702.252C704.799 703.137 705.947 704.345 706.783 705.876C707.628 707.398 708.045 709.148 708.036 711.126C708.045 713.105 707.598 714.87 706.693 716.421C705.798 717.972 704.555 719.195 702.964 720.09C701.384 720.975 699.569 721.418 697.521 721.418Z" fill="white"/>
<path opacity="0.1" d="M1 1H670C686.569 1 700 14.4315 700 31V659" stroke="#C10000" stroke-width="2" stroke-linecap="round"/>
</svg>
