<svg width="793" height="656" viewBox="0 0 793 656" fill="none" xmlns="http://www.w3.org/2000/svg">
<rect x="720.5" width="72" height="72" rx="36" fill="#C10000"/>
<path d="M756.072 51.4176C754.024 51.4176 752.195 51.0646 750.584 50.3587C748.983 49.6527 747.715 48.6733 746.781 47.4205C745.856 46.1577 745.359 44.696 745.289 43.0355H749.972C750.032 43.9403 750.335 44.7259 750.882 45.392C751.439 46.0483 752.165 46.5554 753.06 46.9134C753.955 47.2713 754.949 47.4503 756.043 47.4503C757.246 47.4503 758.31 47.2415 759.234 46.8239C760.169 46.4062 760.9 45.8246 761.427 45.0788C761.954 44.3232 762.217 43.4531 762.217 42.4688C762.217 41.4446 761.954 40.5447 761.427 39.7692C760.91 38.9837 760.149 38.3672 759.145 37.9197C758.151 37.4723 756.947 37.2486 755.536 37.2486H752.955V33.4901H755.536C756.669 33.4901 757.663 33.2862 758.518 32.8786C759.384 32.4709 760.06 31.9041 760.547 31.1783C761.034 30.4425 761.278 29.5824 761.278 28.598C761.278 27.6534 761.064 26.8331 760.636 26.1371C760.219 25.4311 759.622 24.8793 758.847 24.4815C758.081 24.0838 757.176 23.8849 756.132 23.8849C755.138 23.8849 754.208 24.0689 753.343 24.4368C752.488 24.7947 751.792 25.3118 751.255 25.9879C750.718 26.6541 750.43 27.4545 750.39 28.3892H745.93C745.98 26.7386 746.467 25.2869 747.392 24.0341C748.327 22.7812 749.56 21.8018 751.091 21.0959C752.622 20.3899 754.322 20.0369 756.192 20.0369C758.151 20.0369 759.841 20.4197 761.263 21.1854C762.695 21.941 763.798 22.9503 764.574 24.2131C765.359 25.4759 765.747 26.858 765.737 28.3594C765.747 30.0696 765.27 31.5213 764.305 32.7145C763.351 33.9077 762.078 34.7081 760.487 35.1158V35.3544C762.516 35.6626 764.087 36.468 765.2 37.7706C766.324 39.0732 766.881 40.6889 766.871 42.6179C766.881 44.2983 766.413 45.8047 765.469 47.1371C764.534 48.4695 763.256 49.5185 761.636 50.2841C760.015 51.0398 758.161 51.4176 756.072 51.4176Z" fill="white"/>
<rect x="56" y="584" width="72" height="72" rx="36" fill="#1A1A1A"/>
<path d="M80.2969 629.034V625.305L93.4964 604.455H96.4347V609.943H94.5703L85.1293 624.888V625.126H103.221V629.034H80.2969ZM94.7791 635V627.901L94.8089 626.2V604.455H99.179V635H94.7791Z" fill="white"/>
<path opacity="0.1" d="M711 40H31C14.4314 40 1 53.4315 1 70V590C1 606.569 14.4315 620 31 620H43.9167" stroke="#1A1A1A" stroke-width="2" stroke-linecap="round"/>
</svg>
