<svg width="70" height="70" viewBox="0 0 70 70" fill="none" xmlns="http://www.w3.org/2000/svg">
<rect x="0.5" y="0.5" width="69" height="69" rx="34.5" fill="white"/>
<path d="M26.4252 45.3381C24.8542 45.3314 23.5119 44.9171 22.3983 44.0952C21.2846 43.2732 20.4328 42.0767 19.8429 40.5057C19.2529 38.9347 18.9579 37.0421 18.9579 34.8281C18.9579 32.6207 19.2529 30.7348 19.8429 29.1705C20.4395 27.6061 21.2946 26.4129 22.4082 25.5909C23.5285 24.7689 24.8675 24.358 26.4252 24.358C27.983 24.358 29.3187 24.7723 30.4324 25.6009C31.546 26.4228 32.3978 27.616 32.9877 29.1804C33.5843 30.7382 33.8826 32.6207 33.8826 34.8281C33.8826 37.0488 33.5877 38.9446 32.9977 40.5156C32.4077 42.08 31.5559 43.2765 30.4423 44.1051C29.3287 44.9271 27.9896 45.3381 26.4252 45.3381ZM26.4252 42.6832C27.804 42.6832 28.8812 42.0104 29.6568 40.6648C30.439 39.3191 30.8301 37.3736 30.8301 34.8281C30.8301 33.1378 30.6511 31.7093 30.2931 30.5426C29.9418 29.3693 29.4347 28.4811 28.7718 27.8778C28.1156 27.268 27.3334 26.9631 26.4252 26.9631C25.0531 26.9631 23.9759 27.6392 23.1937 28.9915C22.4115 30.3437 22.0171 32.2893 22.0105 34.8281C22.0105 36.5251 22.1861 37.9602 22.5375 39.1335C22.8954 40.3002 23.4025 41.1851 24.0588 41.7884C24.715 42.3849 25.5038 42.6832 26.4252 42.6832ZM37.41 45L37.41 42.7727L44.3006 35.6335C45.0364 34.858 45.6429 34.1785 46.1202 33.5952C46.6041 33.0052 46.9654 32.4451 47.204 31.9148C47.4426 31.3845 47.562 30.821 47.562 30.2244C47.562 29.5483 47.4029 28.965 47.0847 28.4744C46.7665 27.9773 46.3323 27.5961 45.7821 27.331C45.2319 27.0592 44.6122 26.9233 43.9228 26.9233C43.1936 26.9233 42.5572 27.0724 42.0137 27.3707C41.4701 27.669 41.0525 28.09 40.7608 28.6335C40.4692 29.1771 40.3233 29.8134 40.3233 30.5426L37.3901 30.5426C37.3901 29.303 37.6751 28.2192 38.2452 27.2912C38.8153 26.3632 39.5975 25.6439 40.5918 25.1335C41.5861 24.6165 42.7163 24.358 43.9824 24.358C45.2618 24.358 46.3887 24.6132 47.3631 25.1236C48.3442 25.6274 49.1098 26.3168 49.66 27.1918C50.2102 28.0601 50.4853 29.0412 50.4853 30.1349C50.4853 30.8906 50.3427 31.6297 50.0577 32.3523C49.7793 33.0748 49.2921 33.8802 48.5961 34.7685C47.9 35.6501 46.9322 36.7206 45.6926 37.9801L41.6458 42.2159L41.6458 42.3651L50.8134 42.3651L50.8134 45L37.41 45Z" fill="#1A1A1A"/>
<rect x="0.5" y="0.5" width="69" height="69" rx="34.5" stroke="#CACACA"/>
</svg>
