<svg width="70" height="70" viewBox="0 0 70 70" fill="none" xmlns="http://www.w3.org/2000/svg">
<rect x="0.5" y="0.5" width="69" height="69" rx="34.5" fill="white"/>
<path d="M28.394 45.3381C26.823 45.3314 25.4806 44.9171 24.367 44.0952C23.2534 43.2732 22.4016 42.0767 21.8116 40.5057C21.2217 38.9347 20.9267 37.0421 20.9267 34.8281C20.9267 32.6207 21.2217 30.7348 21.8116 29.1705C22.4082 27.6061 23.2633 26.4129 24.377 25.5909C25.4972 24.7689 26.8362 24.358 28.394 24.358C29.9518 24.358 31.2875 24.7723 32.4011 25.6009C33.5147 26.4228 34.3665 27.616 34.9565 29.1804C35.5531 30.7382 35.8514 32.6207 35.8514 34.8281C35.8514 37.0488 35.5564 38.9446 34.9664 40.5156C34.3765 42.08 33.5247 43.2765 32.411 44.1051C31.2974 44.9271 29.9584 45.3381 28.394 45.3381ZM28.394 42.6832C29.7728 42.6832 30.85 42.0104 31.6255 40.6648C32.4077 39.3191 32.7988 37.3736 32.7988 34.8281C32.7988 33.1378 32.6199 31.7093 32.2619 30.5426C31.9106 29.3693 31.4035 28.4811 30.7406 27.8778C30.0843 27.268 29.3021 26.9631 28.394 26.9631C27.0218 26.9631 25.9447 27.6392 25.1625 28.9915C24.3803 30.3437 23.9859 32.2893 23.9792 34.8281C23.9792 36.5251 24.1549 37.9602 24.5062 39.1335C24.8642 40.3002 25.3713 41.1851 26.0275 41.7884C26.6838 42.3849 27.4726 42.6832 28.394 42.6832ZM47.1046 24.6364V45H44.0222V27.7188H43.9029L39.0307 30.9006V27.9574L44.1117 24.6364H47.1046Z" fill="#1A1A1A"/>
<rect x="0.5" y="0.5" width="69" height="69" rx="34.5" stroke="#CACACA"/>
</svg>
