<svg width="70" height="70" viewBox="0 0 70 70" fill="none" xmlns="http://www.w3.org/2000/svg">
<rect x="0.5" y="0.5" width="69" height="69" rx="34.5" fill="white"/>
<path d="M25.851 45.3381C24.28 45.3314 22.9377 44.9171 21.824 44.0952C20.7104 43.2732 19.8586 42.0767 19.2686 40.5057C18.6787 38.9347 18.3837 37.0421 18.3837 34.8281C18.3837 32.6207 18.6787 30.7348 19.2686 29.1705C19.8652 27.6061 20.7203 26.4129 21.834 25.5909C22.9542 24.7689 24.2933 24.358 25.851 24.358C27.4088 24.358 28.7445 24.7723 29.8581 25.6009C30.9718 26.4228 31.8236 27.616 32.4135 29.1804C33.0101 30.7382 33.3084 32.6207 33.3084 34.8281C33.3084 37.0488 33.0134 38.9446 32.4235 40.5156C31.8335 42.08 30.9817 43.2765 29.8681 44.1051C28.7544 44.9271 27.4154 45.3381 25.851 45.3381ZM25.851 42.6832C27.2298 42.6832 28.307 42.0104 29.0826 40.6648C29.8648 39.3191 30.2559 37.3736 30.2559 34.8281C30.2559 33.1378 30.0769 31.7093 29.7189 30.5426C29.3676 29.3693 28.8605 28.4811 28.1976 27.8778C27.5414 27.268 26.7592 26.9631 25.851 26.9631C24.4789 26.9631 23.4017 27.6392 22.6195 28.9915C21.8373 30.3438 21.4429 32.2893 21.4363 34.8281C21.4363 36.5251 21.6119 37.9602 21.9632 39.1335C22.3212 40.3002 22.8283 41.1851 23.4846 41.7884C24.1408 42.3849 24.9296 42.6832 25.851 42.6832ZM36.4082 41.0227L36.4082 38.5369L45.2079 24.6364L47.1667 24.6364L47.1667 28.2955L45.9238 28.2955L39.6298 38.2585L39.6298 38.4176L51.6909 38.4176L51.6909 41.0227L36.4082 41.0227ZM46.063 45L46.063 40.267L46.0829 39.1335L46.0829 24.6364L48.9963 24.6364L48.9963 45L46.063 45Z" fill="#1A1A1A"/>
<rect x="0.5" y="0.5" width="69" height="69" rx="34.5" stroke="#CACACA"/>
</svg>
