<svg width="73" height="72" viewBox="0 0 73 72" fill="none" xmlns="http://www.w3.org/2000/svg">
<rect x="0.5" width="72" height="72" rx="36" fill="#C10000"/>
<path d="M36.0724 51.4176C34.0241 51.4176 32.1946 51.0646 30.5838 50.3587C28.983 49.6527 27.7152 48.6733 26.7805 47.4205C25.8558 46.1577 25.3587 44.696 25.2891 43.0355H29.9723C30.032 43.9403 30.3352 44.7259 30.8821 45.392C31.4389 46.0483 32.1648 46.5554 33.0597 46.9134C33.9545 47.2713 34.9489 47.4503 36.0426 47.4503C37.2457 47.4503 38.3097 47.2415 39.2344 46.8239C40.169 46.4062 40.8999 45.8246 41.4268 45.0788C41.9538 44.3232 42.2173 43.4531 42.2173 42.4688C42.2173 41.4446 41.9538 40.5447 41.4268 39.7692C40.9098 38.9837 40.1491 38.3672 39.1449 37.9197C38.1506 37.4723 36.9474 37.2486 35.5355 37.2486H32.9553V33.4901H35.5355C36.669 33.4901 37.6634 33.2862 38.5185 32.8786C39.3835 32.4709 40.0597 31.9041 40.5469 31.1783C41.0341 30.4425 41.2777 29.5824 41.2777 28.598C41.2777 27.6534 41.0639 26.8331 40.6364 26.1371C40.2188 25.4311 39.6222 24.8793 38.8466 24.4815C38.081 24.0838 37.1761 23.8849 36.1321 23.8849C35.1378 23.8849 34.2081 24.0689 33.343 24.4368C32.4879 24.7947 31.7919 25.3118 31.255 25.9879C30.718 26.6541 30.4297 27.4545 30.3899 28.3892H25.9304C25.9801 26.7386 26.4673 25.2869 27.392 24.0341C28.3267 22.7812 29.5597 21.8018 31.0909 21.0959C32.6222 20.3899 34.3224 20.0369 36.1918 20.0369C38.1506 20.0369 39.8409 20.4197 41.2628 21.1854C42.6946 21.941 43.7983 22.9503 44.5739 24.2131C45.3594 25.4759 45.7472 26.858 45.7372 28.3594C45.7472 30.0696 45.2699 31.5213 44.3054 32.7145C43.3509 33.9077 42.0781 34.7081 40.4872 35.1158V35.3544C42.5156 35.6626 44.0866 36.468 45.2003 37.7706C46.3239 39.0732 46.8807 40.6889 46.8707 42.6179C46.8807 44.2983 46.4134 45.8047 45.4688 47.1371C44.5341 48.4695 43.2564 49.5185 41.6357 50.2841C40.0149 51.0398 38.1605 51.4176 36.0724 51.4176Z" fill="white"/>
</svg>
