<svg width="70" height="70" viewBox="0 0 70 70" fill="none" xmlns="http://www.w3.org/2000/svg">
<rect x="0.5" y="0.5" width="69" height="69" rx="34.5" fill="white"/>
<path d="M25.9877 45.3381C24.4167 45.3314 23.0744 44.9171 21.9608 44.0952C20.8471 43.2732 19.9953 42.0767 19.4054 40.5057C18.8154 38.9347 18.5204 37.0421 18.5204 34.8281C18.5204 32.6207 18.8154 30.7348 19.4054 29.1705C20.002 27.6061 20.8571 26.4129 21.9707 25.5909C23.091 24.7689 24.43 24.358 25.9877 24.358C27.5455 24.358 28.8812 24.7723 29.9949 25.6009C31.1085 26.4228 31.9603 27.616 32.5502 29.1804C33.1468 30.7382 33.4451 32.6207 33.4451 34.8281C33.4451 37.0488 33.1502 38.9446 32.5602 40.5156C31.9702 42.08 31.1184 43.2765 30.0048 44.1051C28.8912 44.9271 27.5521 45.3381 25.9877 45.3381ZM25.9877 42.6832C27.3665 42.6832 28.4437 42.0104 29.2193 40.6648C30.0015 39.3191 30.3926 37.3736 30.3926 34.8281C30.3926 33.1378 30.2136 31.7093 29.8556 30.5426C29.5043 29.3693 28.9972 28.4811 28.3343 27.8778C27.6781 27.268 26.8959 26.9631 25.9877 26.9631C24.6156 26.9631 23.5384 27.6392 22.7562 28.9915C21.974 30.3437 21.5796 32.2893 21.573 34.8281C21.573 36.5251 21.7486 37.9602 22.1 39.1335C22.4579 40.3002 22.965 41.1851 23.6213 41.7884C24.2775 42.3849 25.0663 42.6832 25.9877 42.6832ZM44.062 45.2784C42.6964 45.2784 41.4767 45.0431 40.4029 44.5724C39.3356 44.1018 38.4905 43.4489 37.8674 42.6136C37.2509 41.7718 36.9194 40.7973 36.873 39.6903H39.9952C40.035 40.2936 40.2372 40.8172 40.6017 41.2614C40.973 41.6989 41.4569 42.0369 42.0534 42.2756C42.65 42.5142 43.3129 42.6335 44.0421 42.6335C44.8442 42.6335 45.5534 42.4943 46.1699 42.2159C46.793 41.9375 47.2802 41.5497 47.6316 41.0526C47.9829 40.5488 48.1586 39.9688 48.1586 39.3125C48.1586 38.6297 47.9829 38.0298 47.6316 37.5128C47.2869 36.9891 46.7798 36.5781 46.1103 36.2798C45.4474 35.9815 44.6453 35.8324 43.704 35.8324H41.9838V33.3267H43.704C44.4597 33.3267 45.1226 33.1908 45.6926 32.919C46.2694 32.6473 46.7201 32.2694 47.0449 31.7855C47.3697 31.295 47.5321 30.7216 47.5321 30.0653C47.5321 29.4356 47.3896 28.8887 47.1046 28.4247C46.8262 27.9541 46.4284 27.5862 45.9114 27.321C45.401 27.0559 44.7978 26.9233 44.1017 26.9233C43.4389 26.9233 42.8191 27.0459 42.2424 27.2912C41.6723 27.5298 41.2083 27.8745 40.8503 28.3253C40.4924 28.7694 40.3001 29.303 40.2736 29.9261H37.3006C37.3337 28.8258 37.6586 27.858 38.275 27.0227C38.8981 26.1875 39.7201 25.5346 40.7409 25.0639C41.7618 24.5933 42.8953 24.358 44.1415 24.358C45.4474 24.358 46.5743 24.6132 47.5222 25.1236C48.4767 25.6274 49.2125 26.3002 49.7296 27.142C50.2533 27.9839 50.5118 28.9053 50.5051 29.9062C50.5118 31.0464 50.1936 32.0142 49.5506 32.8097C48.9142 33.6051 48.0658 34.1387 47.0051 34.4105V34.5696C48.3574 34.7751 49.4048 35.312 50.1472 36.1804C50.8962 37.0488 51.2675 38.1259 51.2608 39.4119C51.2675 40.5322 50.9559 41.5365 50.3262 42.4247C49.7031 43.313 48.8513 44.0123 47.7708 44.5227C46.6903 45.0265 45.454 45.2784 44.062 45.2784Z" fill="#1A1A1A"/>
<rect x="0.5" y="0.5" width="69" height="69" rx="34.5" stroke="#CACACA"/>
</svg>
