<svg width="72" height="72" viewBox="0 0 72 72" fill="none" xmlns="http://www.w3.org/2000/svg">
<rect width="72" height="72" rx="36" fill="#C10000"/>
<path d="M35.5206 51.4176C33.6513 51.4176 31.9709 51.0597 30.4794 50.3438C28.9979 49.6179 27.8146 48.6236 26.9297 47.3608C26.0447 46.098 25.5724 44.6562 25.5128 43.0355H29.9872C30.0966 44.348 30.6783 45.4268 31.7322 46.272C32.7862 47.1172 34.049 47.5398 35.5206 47.5398C36.6939 47.5398 37.733 47.2713 38.6378 46.7344C39.5526 46.1875 40.2685 45.4368 40.7855 44.4822C41.3125 43.5277 41.576 42.4389 41.576 41.2159C41.576 39.973 41.3075 38.8643 40.7706 37.8899C40.2337 36.9155 39.4929 36.1499 38.5483 35.593C37.6136 35.0362 36.5398 34.7528 35.3267 34.7429C34.402 34.7429 33.4723 34.902 32.5376 35.2202C31.603 35.5384 30.8473 35.956 30.2706 36.473L26.0497 35.8466L27.7649 20.4545H44.5589V24.407H31.598L30.6286 32.9531H30.8075C31.4041 32.3764 32.1946 31.8942 33.179 31.5064C34.1733 31.1186 35.2372 30.9247 36.3707 30.9247C38.2301 30.9247 39.8857 31.3672 41.3374 32.2521C42.799 33.1371 43.9474 34.3452 44.7827 35.8764C45.6278 37.3977 46.0455 39.1477 46.0355 41.1264C46.0455 43.1051 45.598 44.87 44.6932 46.4212C43.7983 47.9723 42.5554 49.1953 40.9645 50.0902C39.3835 50.9751 37.5689 51.4176 35.5206 51.4176Z" fill="white"/>
</svg>
