<svg width="80" height="80" viewBox="0 0 80 80" fill="none" xmlns="http://www.w3.org/2000/svg">
<path d="M53.3333 75.8333L26.6666 75.8333C11.2666 75.8333 8.39994 68.6667 7.66661 61.7L5.16661 35C4.79994 31.5 4.69994 26.3333 8.16661 22.4667C11.1666 19.1333 16.1333 17.5333 23.3333 17.5333L56.6666 17.5333C63.8999 17.5333 68.8666 19.1667 71.8333 22.4667C75.2999 26.3333 75.1999 31.5 74.8333 35.0333L72.3333 61.6667C71.5999 68.6667 68.7333 75.8333 53.3333 75.8333ZM23.3333 22.5C17.6999 22.5 13.8333 23.6 11.8666 25.8C10.2333 27.6 9.69994 30.3667 10.1333 34.5L12.6333 61.2C13.1999 66.4667 14.6333 70.8333 26.6666 70.8333L53.3333 70.8333C65.3333 70.8333 66.7999 66.4667 67.3666 61.1667L69.8666 34.5333C70.2999 30.3667 69.7666 27.6 68.1333 25.8C66.1666 23.6 62.2999 22.5 56.6666 22.5L23.3333 22.5Z" fill="#292D32"/>
<path d="M53.3333 22.5C51.9666 22.5 50.8333 21.3666 50.8333 20L50.8333 17.3333C50.8333 11.4 50.8333 9.16663 42.6666 9.16663L37.3333 9.16663C29.1666 9.16663 29.1666 11.4 29.1666 17.3333L29.1666 20C29.1666 21.3666 28.0333 22.5 26.6666 22.5C25.3 22.5 24.1666 21.3666 24.1666 20L24.1666 17.3333C24.1666 11.4666 24.1666 4.16663 37.3333 4.16663L42.6666 4.16663C55.8333 4.16663 55.8333 11.4666 55.8333 17.3333L55.8333 20C55.8333 21.3666 54.7 22.5 53.3333 22.5Z" fill="#292D32"/>
<path d="M40 55.8333C30.8334 55.8333 30.8334 50.1667 30.8334 46.7667L30.8334 43.3333C30.8334 38.6333 31.9667 37.5 36.6667 37.5L43.3334 37.5C48.0334 37.5 49.1667 38.6333 49.1667 43.3333L49.1667 46.6667C49.1667 50.1333 49.1667 55.8333 40 55.8333ZM35.8334 42.5C35.8334 42.7667 35.8334 43.0667 35.8334 43.3333L35.8334 46.7667C35.8334 50.2 35.8334 50.8333 40 50.8333C44.1667 50.8333 44.1667 50.3 44.1667 46.7333L44.1667 43.3333C44.1667 43.0667 44.1667 42.7667 44.1667 42.5C43.9 42.5 43.6 42.5 43.3334 42.5L36.6667 42.5C36.4 42.5 36.1 42.5 35.8334 42.5Z" fill="#292D32"/>
<path d="M46.6666 49.2334C45.4333 49.2334 44.3333 48.3 44.2 47.0334C44.0333 45.6667 45 44.4 46.3666 44.2334C55.1666 43.1334 63.6 39.8 70.7 34.6334C71.8 33.8 73.3666 34.0667 74.2 35.2C75 36.3 74.7666 37.8667 73.6333 38.7C65.8333 44.3667 56.6333 48 46.9666 49.2334C46.8666 49.2334 46.7666 49.2334 46.6666 49.2334Z" fill="#292D32"/>
<path d="M33.3333 49.2667C33.2333 49.2667 33.1333 49.2667 33.0333 49.2667C23.9 48.2333 15 44.9 7.29997 39.6333C6.16663 38.8667 5.86663 37.3 6.6333 36.1667C7.39997 35.0333 8.96663 34.7333 10.1 35.5C17.1333 40.3 25.2333 43.3333 33.5666 44.3C34.9333 44.4667 35.9333 45.7 35.7666 47.0667C35.6666 48.3333 34.6 49.2667 33.3333 49.2667Z" fill="#292D32"/>
</svg>
