<svg width="80" height="80" viewBox="0 0 80 80" fill="none" xmlns="http://www.w3.org/2000/svg">
<path d="M43.3334 75.8334H16.6667C8.60002 75.8334 4.16669 71.4 4.16669 63.3334V36.6667C4.16669 28.6 8.60002 24.1667 16.6667 24.1667H33.3334C34.7 24.1667 35.8334 25.3 35.8334 26.6667V63.3334C35.8334 68.6 38.0667 70.8334 43.3334 70.8334C44.7 70.8334 45.8334 71.9667 45.8334 73.3334C45.8334 74.7 44.7 75.8334 43.3334 75.8334ZM16.6667 29.1667C11.4 29.1667 9.16669 31.4 9.16669 36.6667V63.3334C9.16669 68.6 11.4 70.8334 16.6667 70.8334H32.6666C31.4666 68.8667 30.8334 66.3667 30.8334 63.3334V29.1667H16.6667Z" fill="white"/>
<path d="M33.3334 29.1666H16.6667C15.3 29.1666 14.1667 28.0333 14.1667 26.6666V20C14.1667 14.9333 18.2667 10.8333 23.3334 10.8333H33.7C34.4666 10.8333 35.2001 11.1999 35.6667 11.7999C36.1334 12.4332 36.3 13.2333 36.1 13.9667C35.9 14.7 35.8334 15.5333 35.8334 16.6666V26.6666C35.8334 28.0333 34.7 29.1666 33.3334 29.1666ZM19.1667 24.1666H30.8334V16.6666C30.8334 16.3666 30.8334 16.1 30.8334 15.8333H23.3334C21.0334 15.8333 19.1667 17.7 19.1667 20V24.1666Z" fill="white"/>
<path d="M46.6667 45.8334C45.3 45.8334 44.1667 44.7 44.1667 43.3334V26.6667C44.1667 25.3 45.3 24.1667 46.6667 24.1667C48.0334 24.1667 49.1667 25.3 49.1667 26.6667V43.3334C49.1667 44.7 48.0334 45.8334 46.6667 45.8334Z" fill="white"/>
<path d="M60 45.8334C58.6333 45.8334 57.5 44.7 57.5 43.3334V26.6667C57.5 25.3 58.6333 24.1667 60 24.1667C61.3667 24.1667 62.5 25.3 62.5 26.6667V43.3334C62.5 44.7 61.3667 45.8334 60 45.8334Z" fill="white"/>
<path d="M60 75.8334H46.6667C45.3 75.8334 44.1667 74.7 44.1667 73.3334V60C44.1667 56.8 46.8 54.1667 50 54.1667H56.6667C59.8667 54.1667 62.5 56.8 62.5 60V73.3334C62.5 74.7 61.3667 75.8334 60 75.8334ZM49.1667 70.8334H57.5V60C57.5 59.5334 57.1334 59.1667 56.6667 59.1667H50C49.5334 59.1667 49.1667 59.5334 49.1667 60V70.8334Z" fill="white"/>
<path d="M20 59.1666C18.6333 59.1666 17.5 58.0333 17.5 56.6666V43.3333C17.5 41.9666 18.6333 40.8333 20 40.8333C21.3667 40.8333 22.5 41.9666 22.5 43.3333V56.6666C22.5 58.0333 21.3667 59.1666 20 59.1666Z" fill="white"/>
<path d="M63.3333 75.8334H43.3333C35.2666 75.8334 30.8333 71.4 30.8333 63.3334V16.6667C30.8333 8.60002 35.2666 4.16669 43.3333 4.16669H63.3333C71.4 4.16669 75.8333 8.60002 75.8333 16.6667V63.3334C75.8333 71.4 71.4 75.8334 63.3333 75.8334ZM43.3333 9.16669C38.0666 9.16669 35.8333 11.4 35.8333 16.6667V63.3334C35.8333 68.6 38.0666 70.8334 43.3333 70.8334H63.3333C68.6 70.8334 70.8333 68.6 70.8333 63.3334V16.6667C70.8333 11.4 68.6 9.16669 63.3333 9.16669H43.3333Z" fill="white"/>
</svg>
