<svg width="81" height="80" viewBox="0 0 81 80" fill="none" xmlns="http://www.w3.org/2000/svg">
<path d="M53.7333 75.8333L27.0666 75.8333C15.6666 75.8333 11.2333 71.4 11.2333 60L11.2333 33.3333C11.2333 31.9666 12.3666 30.8333 13.7333 30.8333L67.0666 30.8333C68.4333 30.8333 69.5666 31.9666 69.5666 33.3333L69.5666 60C69.5666 71.4 65.1333 75.8333 53.7333 75.8333ZM16.2333 35.8333L16.2333 60C16.2333 68.6 18.4666 70.8333 27.0666 70.8333L53.7333 70.8333C62.3333 70.8333 64.5666 68.6 64.5666 60L64.5666 35.8333L16.2333 35.8333Z" fill="white"/>
<path d="M65.5 35.8334L15.5 35.8334C9.66671 35.8334 6.33337 32.5 6.33337 26.6667L6.33337 23.3334C6.33337 17.5 9.66671 14.1667 15.5 14.1667L65.5 14.1667C71.1667 14.1667 74.6667 17.6667 74.6667 23.3334L74.6667 26.6667C74.6667 32.3334 71.1667 35.8334 65.5 35.8334ZM15.5 19.1667C12.4667 19.1667 11.3334 20.3 11.3334 23.3334L11.3334 26.6667C11.3334 29.7 12.4667 30.8334 15.5 30.8334L65.5 30.8334C68.4334 30.8334 69.6667 29.6 69.6667 26.6667L69.6667 23.3334C69.6667 20.4 68.4334 19.1667 65.5 19.1667L15.5 19.1667Z" fill="white"/>
<path d="M39.3 19.1667L20.9 19.1667C20.2 19.1667 19.5334 18.8667 19.0667 18.3667C17.0334 16.1333 17.1 12.7 19.2334 10.5667L23.9667 5.83335C26.1667 3.63335 29.8 3.63335 32 5.83335L41.0667 14.9C41.7667 15.6 42 16.7 41.6 17.6333C41.2334 18.5667 40.3334 19.1667 39.3 19.1667ZM22.7334 14.1667L33.3 14.1667L28.4667 9.36668C28.2 9.10002 27.7667 9.10002 27.5 9.36668L22.7667 14.1C22.7667 14.1334 22.7334 14.1333 22.7334 14.1667Z" fill="white"/>
<path d="M60.0667 19.1667L41.6667 19.1667C40.6667 19.1667 39.7334 18.5667 39.3667 17.6333C38.9667 16.7 39.2 15.6333 39.9 14.9L48.9667 5.83335C51.1667 3.63335 54.8 3.63335 57 5.83335L61.7334 10.5667C63.8667 12.7 63.9667 16.1334 61.9 18.3667C61.4334 18.8667 60.7667 19.1667 60.0667 19.1667ZM47.7334 14.1667L58.3 14.1667C58.2667 14.1334 58.2667 14.1334 58.2334 14.1L53.5 9.36668C53.2334 9.10002 52.8 9.10002 52.5334 9.36668L47.7334 14.1667Z" fill="white"/>
<path d="M33.6334 56.3333C32.7 56.3333 31.7334 56.1 30.8667 55.6333C28.9667 54.6 27.8 52.6333 27.8 50.5L27.8 33.3333C27.8 31.9666 28.9334 30.8333 30.3 30.8333L50.4334 30.8333C51.8001 30.8333 52.9334 31.9666 52.9334 33.3333L52.9334 50.4333C52.9334 52.6 51.7667 54.5666 49.8667 55.5666C47.9667 56.6 45.6667 56.4666 43.8667 55.2666L40.9001 53.2666C40.6334 53.0666 40.2667 53.0666 39.9667 53.2666L36.8334 55.3333C35.8667 56 34.7334 56.3333 33.6334 56.3333ZM32.8 35.8333L32.8 50.4666C32.8 50.9 33.0667 51.1 33.2334 51.2C33.4 51.3 33.7334 51.4 34.1 51.1666L37.2334 49.1C39.2001 47.8 41.7334 47.8 43.6667 49.1L46.6334 51.1C47.0001 51.3333 47.3334 51.2333 47.5001 51.1333C47.6667 51.0333 47.9334 50.8333 47.9334 50.4L47.9334 35.8L32.8 35.8L32.8 35.8333Z" fill="white"/>
</svg>
