<svg width="1290" height="561" viewBox="0 0 1290 561" fill="none" xmlns="http://www.w3.org/2000/svg">
<path fill-rule="evenodd" clip-rule="evenodd" d="M912.832 92.242C911.925 92.6093 911.381 92.8297 911.199 92.9032C905.83 95.2885 903.567 101.696 905.952 107.065C908.264 112.253 914.307 114.663 919.569 112.533C919.75 112.459 919.931 112.386 920.113 112.313C920.113 112.313 920.294 112.239 920.476 112.166C922.653 111.284 933.248 107.205 950.505 105.496C968.379 103.749 997.131 104.355 1032.51 116.637C1066.43 128.453 1098.29 133.08 1127.54 130.74C1151.66 128.784 1167.81 122.246 1174.7 119.454C1180.15 117.251 1182.74 111.133 1180.53 105.69C1178.33 100.247 1172.14 97.4738 1166.7 99.6777C1153.09 105.187 1112.09 121.79 1039.62 96.6511C969.663 71.974 922.084 88.4954 912.832 92.242Z" fill="#E5E8EE"/>
<path d="M1161.2 101.903L1162.83 101.242C1172.08 97.4954 1219.66 80.974 1289.62 105.651L1282.51 125.637C1247.13 113.355 1218.38 112.749 1200.5 114.496C1183.25 116.205 1172.65 120.284 1170.48 121.166L1170.11 121.313L1169.57 121.533C1164.31 123.663 1158.26 121.253 1155.95 116.065C1153.57 110.696 1155.83 104.289 1161.2 101.903Z" fill="#E5E8EE"/>
<path fill-rule="evenodd" clip-rule="evenodd" d="M910.836 93.0504C901.584 96.797 855.915 118.036 822.575 184.332C814.033 201.307 788.009 252.815 733.403 274.927C727.96 277.131 725.369 283.249 727.646 288.873C729.85 294.317 735.967 296.908 741.409 294.704C748.303 291.912 764.449 285.374 783.138 269.992C805.849 251.504 825.44 225.831 841.406 193.813C858.382 160.118 878.686 139.859 892.741 128.676C906.144 117.97 916.592 113.527 918.951 112.572C919.313 112.425 919.313 112.425 919.495 112.352C919.676 112.278 919.858 112.205 920.039 112.131C925.3 110.001 927.965 104.065 926.016 98.7296C923.994 93.213 917.911 90.1853 912.395 92.2078C912.287 92.4627 911.743 92.6831 910.836 93.0504Z" fill="#E5E8EE"/>
<path fill-rule="evenodd" clip-rule="evenodd" d="M479.611 267.673C478.704 268.04 478.16 268.26 477.978 268.334C472.609 270.719 470.347 277.126 472.732 282.496C475.043 287.684 481.087 290.094 486.348 287.964C486.529 287.89 486.711 287.817 486.892 287.743C486.892 287.743 487.073 287.67 487.255 287.596C489.432 286.715 500.027 282.635 517.284 280.927C535.159 279.179 563.91 279.785 599.289 292.068C633.212 303.884 665.07 308.511 694.318 306.17C718.443 304.215 734.589 297.677 741.483 294.885C746.925 292.681 749.516 286.564 747.313 281.12C745.109 275.677 738.919 272.904 733.476 275.108C719.87 280.618 678.87 297.221 606.401 272.082C536.442 247.405 488.863 263.926 479.611 267.673Z" fill="#E5E8EE"/>
<path fill-rule="evenodd" clip-rule="evenodd" d="M477.615 268.481C468.363 272.228 422.694 293.466 389.354 359.763C380.812 376.738 354.788 428.246 300.182 450.358C294.74 452.562 292.148 458.68 294.426 464.304C296.629 469.747 302.746 472.339 308.189 470.135C315.082 467.343 331.228 460.805 349.918 445.423C372.628 426.934 392.219 401.262 408.185 369.243C425.161 335.549 445.466 315.289 459.52 304.107C472.923 293.4 483.371 288.958 485.73 288.003C486.093 287.856 486.093 287.856 486.274 287.782C486.456 287.709 486.637 287.636 486.818 287.562C492.079 285.432 494.744 279.495 492.795 274.16C490.773 268.644 484.691 265.616 479.175 267.638C479.067 267.893 478.522 268.114 477.615 268.481Z" fill="#FFE1E1"/>
<path fill-rule="evenodd" clip-rule="evenodd" d="M46.5721 443.03C45.665 443.397 45.1207 443.617 44.9393 443.691C39.5703 446.076 37.3076 452.483 39.6926 457.853C42.0042 463.041 48.0477 465.451 53.3087 463.321C53.4901 463.247 53.6715 463.174 53.853 463.1C53.853 463.1 54.0344 463.027 54.2158 462.953C56.3928 462.072 66.9883 457.992 84.245 456.284C102.119 454.536 130.871 455.142 166.25 467.424C200.355 479.167 232.286 483.976 261.461 481.454C285.585 479.498 301.731 472.96 308.625 470.169C314.068 467.965 316.659 461.847 314.455 456.404C312.251 450.961 306.061 448.188 300.619 450.392C287.012 455.902 246.013 472.504 173.544 447.365C103.403 422.762 55.8243 439.283 46.5721 443.03Z" fill="#FFE1E1"/>
<rect x="252.5" y="422.5" width="69" height="69" rx="34.5" fill="white"/>
<path d="M278.425 467.338C276.854 467.331 275.512 466.917 274.398 466.095C273.285 465.273 272.433 464.077 271.843 462.506C271.253 460.935 270.958 459.042 270.958 456.828C270.958 454.621 271.253 452.735 271.843 451.17C272.439 449.606 273.295 448.413 274.408 447.591C275.528 446.769 276.867 446.358 278.425 446.358C279.983 446.358 281.319 446.772 282.432 447.601C283.546 448.423 284.398 449.616 284.988 451.18C285.584 452.738 285.883 454.621 285.883 456.828C285.883 459.049 285.588 460.945 284.998 462.516C284.408 464.08 283.556 465.277 282.442 466.105C281.329 466.927 279.99 467.338 278.425 467.338ZM278.425 464.683C279.804 464.683 280.881 464.01 281.657 462.665C282.439 461.319 282.83 459.374 282.83 456.828C282.83 455.138 282.651 453.709 282.293 452.543C281.942 451.369 281.435 450.481 280.772 449.878C280.116 449.268 279.333 448.963 278.425 448.963C277.053 448.963 275.976 449.639 275.194 450.991C274.412 452.344 274.017 454.289 274.01 456.828C274.01 458.525 274.186 459.96 274.537 461.134C274.895 462.3 275.403 463.185 276.059 463.788C276.715 464.385 277.504 464.683 278.425 464.683ZM289.41 467L289.41 464.773L296.301 457.634C297.036 456.858 297.643 456.179 298.12 455.595C298.604 455.005 298.965 454.445 299.204 453.915C299.443 453.384 299.562 452.821 299.562 452.224C299.562 451.548 299.403 450.965 299.085 450.474C298.767 449.977 298.332 449.596 297.782 449.331C297.232 449.059 296.612 448.923 295.923 448.923C295.194 448.923 294.557 449.072 294.014 449.371C293.47 449.669 293.052 450.09 292.761 450.634C292.469 451.177 292.323 451.813 292.323 452.543L289.39 452.543C289.39 451.303 289.675 450.219 290.245 449.291C290.815 448.363 291.597 447.644 292.592 447.134C293.586 446.616 294.716 446.358 295.982 446.358C297.262 446.358 298.389 446.613 299.363 447.124C300.344 447.627 301.11 448.317 301.66 449.192C302.21 450.06 302.485 451.041 302.485 452.135C302.485 452.891 302.343 453.63 302.058 454.352C301.779 455.075 301.292 455.88 300.596 456.768C299.9 457.65 298.932 458.721 297.693 459.98L293.646 464.216L293.646 464.365L302.813 464.365L302.813 467L289.41 467Z" fill="#1A1A1A"/>
<rect x="252.5" y="422.5" width="69" height="69" rx="34.5" stroke="#CACACA"/>
<rect x="0.5" y="422.5" width="69" height="69" rx="34.5" fill="white"/>
<path d="M28.394 467.338C26.823 467.331 25.4806 466.917 24.367 466.095C23.2534 465.273 22.4016 464.077 21.8116 462.506C21.2217 460.935 20.9267 459.042 20.9267 456.828C20.9267 454.621 21.2217 452.735 21.8116 451.17C22.4082 449.606 23.2633 448.413 24.377 447.591C25.4972 446.769 26.8362 446.358 28.394 446.358C29.9518 446.358 31.2875 446.772 32.4011 447.601C33.5147 448.423 34.3665 449.616 34.9565 451.18C35.5531 452.738 35.8514 454.621 35.8514 456.828C35.8514 459.049 35.5564 460.945 34.9664 462.516C34.3765 464.08 33.5247 465.277 32.411 466.105C31.2974 466.927 29.9584 467.338 28.394 467.338ZM28.394 464.683C29.7728 464.683 30.85 464.01 31.6255 462.665C32.4077 461.319 32.7988 459.374 32.7988 456.828C32.7988 455.138 32.6199 453.709 32.2619 452.543C31.9106 451.369 31.4035 450.481 30.7406 449.878C30.0843 449.268 29.3021 448.963 28.394 448.963C27.0218 448.963 25.9447 449.639 25.1625 450.991C24.3803 452.344 23.9859 454.289 23.9792 456.828C23.9792 458.525 24.1549 459.96 24.5062 461.134C24.8642 462.3 25.3713 463.185 26.0275 463.788C26.6838 464.385 27.4726 464.683 28.394 464.683ZM47.1046 446.636V467H44.0222V449.719H43.9029L39.0307 452.901V449.957L44.1117 446.636H47.1046Z" fill="#1A1A1A"/>
<rect x="0.5" y="422.5" width="69" height="69" rx="34.5" stroke="#CACACA"/>
<rect x="453" y="245" width="70" height="70" rx="35" fill="#C10000"/>
<path d="M478.988 290.338C477.417 290.331 476.074 289.917 474.961 289.095C473.847 288.273 472.995 287.077 472.405 285.506C471.815 283.935 471.52 282.042 471.52 279.828C471.52 277.621 471.815 275.735 472.405 274.17C473.002 272.606 473.857 271.413 474.971 270.591C476.091 269.769 477.43 269.358 478.988 269.358C480.546 269.358 481.881 269.772 482.995 270.601C484.108 271.423 484.96 272.616 485.55 274.18C486.147 275.738 486.445 277.621 486.445 279.828C486.445 282.049 486.15 283.945 485.56 285.516C484.97 287.08 484.118 288.277 483.005 289.105C481.891 289.927 480.552 290.338 478.988 290.338ZM478.988 287.683C480.367 287.683 481.444 287.01 482.219 285.665C483.001 284.319 483.393 282.374 483.393 279.828C483.393 278.138 483.214 276.709 482.856 275.543C482.504 274.369 481.997 273.481 481.334 272.878C480.678 272.268 479.896 271.963 478.988 271.963C477.616 271.963 476.538 272.639 475.756 273.991C474.974 275.344 474.58 277.289 474.573 279.828C474.573 281.525 474.749 282.96 475.1 284.134C475.458 285.3 475.965 286.185 476.621 286.788C477.278 287.385 478.066 287.683 478.988 287.683ZM497.062 290.278C495.696 290.278 494.477 290.043 493.403 289.572C492.336 289.102 491.49 288.449 490.867 287.614C490.251 286.772 489.919 285.797 489.873 284.69H492.995C493.035 285.294 493.237 285.817 493.602 286.261C493.973 286.699 494.457 287.037 495.053 287.276C495.65 287.514 496.313 287.634 497.042 287.634C497.844 287.634 498.553 287.494 499.17 287.216C499.793 286.937 500.28 286.55 500.632 286.053C500.983 285.549 501.159 284.969 501.159 284.312C501.159 283.63 500.983 283.03 500.632 282.513C500.287 281.989 499.78 281.578 499.11 281.28C498.447 280.982 497.645 280.832 496.704 280.832H494.984V278.327H496.704C497.46 278.327 498.123 278.191 498.693 277.919C499.269 277.647 499.72 277.269 500.045 276.786C500.37 276.295 500.532 275.722 500.532 275.065C500.532 274.436 500.39 273.889 500.105 273.425C499.826 272.954 499.428 272.586 498.911 272.321C498.401 272.056 497.798 271.923 497.102 271.923C496.439 271.923 495.819 272.046 495.242 272.291C494.672 272.53 494.208 272.875 493.85 273.325C493.492 273.769 493.3 274.303 493.274 274.926H490.301C490.334 273.826 490.659 272.858 491.275 272.023C491.898 271.187 492.72 270.535 493.741 270.064C494.762 269.593 495.895 269.358 497.142 269.358C498.447 269.358 499.574 269.613 500.522 270.124C501.477 270.627 502.213 271.3 502.73 272.142C503.253 272.984 503.512 273.905 503.505 274.906C503.512 276.046 503.194 277.014 502.551 277.81C501.914 278.605 501.066 279.139 500.005 279.411V279.57C501.357 279.775 502.405 280.312 503.147 281.18C503.896 282.049 504.267 283.126 504.261 284.412C504.267 285.532 503.956 286.536 503.326 287.425C502.703 288.313 501.851 289.012 500.771 289.523C499.69 290.027 498.454 290.278 497.062 290.278Z" fill="white"/>
<rect x="792.5" y="159.5" width="69" height="69" rx="34.5" fill="white"/>
<path d="M817.851 204.338C816.28 204.331 814.938 203.917 813.824 203.095C812.71 202.273 811.859 201.077 811.269 199.506C810.679 197.935 810.384 196.042 810.384 193.828C810.384 191.621 810.679 189.735 811.269 188.17C811.865 186.606 812.72 185.413 813.834 184.591C814.954 183.769 816.293 183.358 817.851 183.358C819.409 183.358 820.744 183.772 821.858 184.601C822.972 185.423 823.824 186.616 824.414 188.18C825.01 189.738 825.308 191.621 825.308 193.828C825.308 196.049 825.013 197.945 824.423 199.516C823.834 201.08 822.982 202.277 821.868 203.105C820.754 203.927 819.415 204.338 817.851 204.338ZM817.851 201.683C819.23 201.683 820.307 201.01 821.083 199.665C821.865 198.319 822.256 196.374 822.256 193.828C822.256 192.138 822.077 190.709 821.719 189.543C821.368 188.369 820.86 187.481 820.198 186.878C819.541 186.268 818.759 185.963 817.851 185.963C816.479 185.963 815.402 186.639 814.619 187.991C813.837 189.344 813.443 191.289 813.436 193.828C813.436 195.525 813.612 196.96 813.963 198.134C814.321 199.3 814.828 200.185 815.485 200.788C816.141 201.385 816.93 201.683 817.851 201.683ZM828.408 200.023L828.408 197.537L837.208 183.636L839.167 183.636L839.167 187.295L837.924 187.295L831.63 197.259L831.63 197.418L843.691 197.418L843.691 200.023L828.408 200.023ZM838.063 204L838.063 199.267L838.083 198.134L838.083 183.636L840.996 183.636L840.996 204L838.063 204Z" fill="#1A1A1A"/>
<rect x="792.5" y="159.5" width="69" height="69" rx="34.5" stroke="#CACACA"/>
</svg>
