<svg width="80" height="80" viewBox="0 0 80 80" fill="none" xmlns="http://www.w3.org/2000/svg">
<path d="M52.7 67.2666C51.8333 67.2666 50.9333 67.2333 49.9667 67.1333C48.2333 67 46.2667 66.6666 44.2333 66.1666L38.6333 64.8333C23.2667 61.2 18.2333 53.0666 21.8333 37.7333L25.1 23.7666C25.8333 20.6 26.7 18.0333 27.7667 15.9C33.5 4.06664 44.4667 5.1333 52.2667 6.96663L57.8333 8.26664C65.6333 10.1 70.5667 13 73.3333 17.4333C76.0667 21.8666 76.5 27.5666 74.6667 35.3666L71.4 49.3C68.5333 61.5 62.5667 67.2666 52.7 67.2666ZM43.7333 10.8333C38.1667 10.8333 34.6333 13.1333 32.2667 18.0666C31.4 19.8666 30.6333 22.1 29.9667 24.9L26.7 38.8666C23.7333 51.4666 27.1667 56.9666 39.7667 59.9666L45.3667 61.3C47.1667 61.7333 48.8667 62 50.4 62.1333C59.4667 63.0333 63.9667 59.0666 66.5 48.1666L69.7667 34.2333C71.2667 27.8 71.0667 23.3 69.0667 20.0666C67.0667 16.8333 63.1333 14.6333 56.6667 13.1333L51.1 11.8333C48.3333 11.1666 45.8667 10.8333 43.7333 10.8333Z" fill="#292D32"/>
<path d="M27.7667 74.1667C19.2 74.1667 13.7333 69.0334 10.2333 58.2L5.96668 45.0334C1.23334 30.3667 5.46667 22.1 20.0667 17.3667L25.3333 15.6667C27.0667 15.1334 28.3667 14.7667 29.5333 14.5667C30.5 14.3667 31.4333 14.7334 32 15.5C32.5667 16.2667 32.6667 17.2667 32.2667 18.1334C31.4 19.9 30.6333 22.1334 30 24.9334L26.7333 38.9C23.7667 51.5 27.2 57 39.8 60L45.4 61.3334C47.2 61.7667 48.9 62.0334 50.4333 62.1667C51.5 62.2667 52.3667 63 52.6667 64.0334C52.9333 65.0667 52.5333 66.1334 51.6667 66.7334C49.4667 68.2334 46.7 69.5 43.2 70.6334L37.9333 72.3667C34.1 73.5667 30.7667 74.1667 27.7667 74.1667ZM25.9333 20.7334L21.6333 22.1334C9.73334 25.9667 6.90001 31.5667 10.7333 43.5L15 56.6667C18.8667 68.5667 24.4667 71.4334 36.3667 67.6L41.6333 65.8667C41.8333 65.8 42 65.7334 42.2 65.6667L38.6667 64.8334C23.3 61.2 18.2667 53.0667 21.8667 37.7334L25.1333 23.7667C25.3667 22.7 25.6333 21.6667 25.9333 20.7334Z" fill="#292D32"/>
<path d="M58.3 35.0333C58.1 35.0333 57.9 35 57.6667 34.9667L41.5 30.8667C40.1667 30.5333 39.3667 29.1667 39.7 27.8333C40.0333 26.5 41.4 25.7 42.7333 26.0333L58.9 30.1333C60.2333 30.4667 61.0333 31.8333 60.7 33.1667C60.4333 34.2667 59.4 35.0333 58.3 35.0333Z" fill="#292D32"/>
<path d="M48.5334 46.3C48.3334 46.3 48.1334 46.2667 47.9 46.2334L38.2 43.7667C36.8667 43.4333 36.0667 42.0667 36.4 40.7333C36.7334 39.4 38.1 38.6 39.4334 38.9333L49.1334 41.4C50.4667 41.7333 51.2667 43.1 50.9334 44.4333C50.6667 45.5667 49.6667 46.3 48.5334 46.3Z" fill="#292D32"/>
</svg>
