<svg width="80" height="80" viewBox="0 0 80 80" fill="none" xmlns="http://www.w3.org/2000/svg">
<path fill-rule="evenodd" clip-rule="evenodd" d="M65.2351 14.7498C63.4289 12.941 59.7217 12.0169 53.7572 14.0051L25.4597 23.4376C25.4592 23.4378 25.4602 23.4374 25.4597 23.4376C20.8619 24.9757 17.6073 26.6956 15.553 28.3933C13.4897 30.0984 12.8917 31.5493 12.8917 32.6125C12.8917 33.675 13.4889 35.1234 15.551 36.8239C17.6047 38.5175 20.8575 40.2311 25.456 41.7612L33.8572 44.5617C34.6037 44.8105 35.1895 45.3963 35.4384 46.1428L38.2384 54.5428C39.7683 59.1405 41.4841 62.3942 43.1798 64.4478C44.8823 66.5096 46.3341 67.1084 47.4 67.1084C48.4659 67.1084 49.9177 66.5096 51.6202 64.4478C53.3159 62.3942 55.0313 59.1418 56.5612 54.544L65.9931 26.2484C65.9934 26.2476 65.9928 26.2493 65.9931 26.2484C67.9652 20.2833 67.0441 16.5616 65.2351 14.7498ZM68.7733 11.2169C72.5389 14.9882 72.967 21.085 70.7402 27.8183L70.7384 27.8239L61.3054 56.1227C61.3053 56.1231 61.3056 56.1223 61.3054 56.1227C59.6688 61.041 57.7089 64.9269 55.4756 67.6314C53.249 70.328 50.5174 72.1084 47.4 72.1084C44.2826 72.1084 41.551 70.328 39.3243 67.6314C37.0911 64.9269 35.1316 61.0423 33.495 56.1239L31.0902 48.9098L23.8773 46.5055C23.8769 46.5054 23.8778 46.5056 23.8773 46.5055C18.9597 44.869 15.0742 42.9116 12.3699 40.6814C9.67355 38.4579 7.89166 35.7293 7.89166 32.6125C7.89166 29.4966 9.67275 26.7663 12.3678 24.5391C15.0716 22.3047 18.9556 20.3409 23.8736 18.6958L52.1761 9.26166C58.9116 7.01649 65.0044 7.44242 68.7733 11.2169Z" fill="#292D32"/>
<path fill-rule="evenodd" clip-rule="evenodd" d="M47.3986 31.7631C48.3763 32.738 48.3785 34.321 47.4036 35.2986L35.4702 47.2653C34.4953 48.243 32.9124 48.2452 31.9347 47.2702C30.957 46.2953 30.9548 44.7124 31.9298 43.7347L43.8631 31.768C44.8381 30.7904 46.421 30.7881 47.3986 31.7631Z" fill="#292D32"/>
</svg>
