<svg width="978" height="413" viewBox="0 0 978 413" fill="none" xmlns="http://www.w3.org/2000/svg">
<path d="M978 7.10386C978 3.8913 975.418 1 971.867 1C968.317 1 965.735 3.57005 965.735 7.10386C965.735 9.99517 967.671 12.244 970.253 12.8865V27.6642C970.253 44.0483 956.697 57.5411 940.236 57.5411H548.713C530.315 57.5411 515.467 72.3188 515.467 90.6304V122.114C512.885 122.756 510.948 125.005 510.948 127.896C510.948 131.109 513.531 134 517.081 134C520.309 134 523.214 131.43 523.214 127.896C523.214 125.005 521.277 122.756 518.695 122.114V90.6304C518.695 74.2464 532.251 60.7536 548.713 60.7536H940.236C958.634 60.7536 973.481 45.9758 973.481 27.6642V12.8865C976.063 12.244 978 9.67391 978 7.10386Z" fill="#A8A8A8"/>
<path d="M462.855 122.114V90.6304C462.855 72.3188 448.008 57.5411 429.61 57.5411H37.7644C21.303 57.5411 7.74653 44.0483 7.74653 27.6642V12.8865C10.3287 12.244 12.2653 9.99517 12.2653 7.10386C12.2653 3.8913 9.68317 1 6.13267 1C2.58218 1 0 3.57005 0 7.10386C0 9.99517 1.93663 12.244 4.51881 12.8865V27.6642C4.51881 45.9758 19.3663 60.7536 37.7644 60.7536H429.287C445.749 60.7536 459.305 74.2464 459.305 90.6304V122.114C456.723 122.756 454.786 125.005 454.786 127.896C454.786 131.109 457.368 134 460.919 134C464.147 134 467.051 131.43 467.051 127.896C467.051 125.005 465.115 122.756 462.855 122.114Z" fill="#C10000"/>
<path d="M490.291 122.114V12.8865C492.873 12.244 494.81 9.99517 494.81 7.10386C494.81 3.8913 492.228 1 488.677 1C485.449 1 482.545 3.57005 482.545 7.10386C482.545 9.99517 484.481 12.244 487.063 12.8865V122.114C484.481 122.756 482.545 125.005 482.545 127.896C482.545 131.109 485.127 134 488.677 134C491.905 134 494.81 131.43 494.81 127.896C494.81 125.005 492.873 122.756 490.291 122.114Z" fill="#A8A8A8"/>
<rect x="376.5" y="149" width="226" height="116" rx="30" fill="#C10000"/>
<path d="M422.991 217L417.244 196.636H421.211L424.881 211.601H425.069L428.987 196.636H432.596L436.524 211.611H436.703L440.372 196.636H444.339L438.592 217H434.953L430.876 202.712H430.717L426.631 217H422.991ZM450.338 208.051V217H446.738V196.636H450.258V204.322H450.437C450.795 203.461 451.348 202.781 452.097 202.284C452.853 201.78 453.814 201.528 454.981 201.528C456.042 201.528 456.966 201.75 457.755 202.195C458.544 202.639 459.154 203.288 459.585 204.143C460.022 204.999 460.241 206.043 460.241 207.276V217H456.642V207.832C456.642 206.805 456.376 206.006 455.846 205.436C455.322 204.859 454.587 204.571 453.639 204.571C453.002 204.571 452.432 204.71 451.928 204.989C451.431 205.26 451.04 205.655 450.755 206.172C450.477 206.689 450.338 207.315 450.338 208.051ZM465.6 222.727C465.11 222.727 464.656 222.688 464.238 222.608C463.827 222.535 463.499 222.449 463.254 222.349L464.089 219.545C464.613 219.698 465.08 219.771 465.491 219.764C465.902 219.758 466.263 219.628 466.575 219.376C466.893 219.131 467.161 218.72 467.38 218.143L467.688 217.318L462.15 201.727H465.968L469.488 213.261H469.647L473.177 201.727H477.005L470.89 218.849C470.605 219.658 470.227 220.351 469.757 220.928C469.286 221.511 468.709 221.955 468.026 222.26C467.35 222.571 466.542 222.727 465.6 222.727ZM486.6 217V196.636H494.237C495.801 196.636 497.114 196.908 498.174 197.452C499.241 197.995 500.047 198.758 500.59 199.739C501.141 200.713 501.416 201.85 501.416 203.149C501.416 204.455 501.137 205.589 500.58 206.55C500.03 207.504 499.218 208.243 498.144 208.767C497.07 209.284 495.751 209.543 494.187 209.543H488.748V206.48H493.69C494.605 206.48 495.354 206.354 495.937 206.102C496.52 205.844 496.951 205.469 497.23 204.979C497.515 204.482 497.657 203.872 497.657 203.149C497.657 202.427 497.515 201.81 497.23 201.3C496.945 200.783 496.51 200.392 495.927 200.126C495.344 199.855 494.591 199.719 493.67 199.719H490.289V217H486.6ZM497.12 207.773L502.161 217H498.045L493.093 207.773H497.12ZM504.811 217V196.636H518.056V199.729H508.5V205.257H517.369V208.349H508.5V213.908H518.135V217H504.811ZM539.249 203.507H535.531C535.425 202.897 535.229 202.357 534.944 201.886C534.659 201.409 534.304 201.005 533.88 200.673C533.456 200.342 532.972 200.093 532.428 199.928C531.892 199.755 531.311 199.669 530.688 199.669C529.581 199.669 528.6 199.947 527.745 200.504C526.89 201.054 526.221 201.863 525.737 202.93C525.253 203.991 525.011 205.287 525.011 206.818C525.011 208.376 525.253 209.688 525.737 210.756C526.227 211.816 526.897 212.618 527.745 213.162C528.6 213.699 529.578 213.967 530.678 213.967C531.288 213.967 531.858 213.888 532.389 213.729C532.926 213.563 533.406 213.321 533.83 213.003C534.261 212.685 534.623 212.294 534.914 211.83C535.213 211.366 535.418 210.835 535.531 210.239L539.249 210.259C539.11 211.226 538.809 212.134 538.345 212.983C537.887 213.831 537.287 214.58 536.545 215.23C535.802 215.873 534.934 216.377 533.94 216.741C532.945 217.099 531.842 217.278 530.629 217.278C528.839 217.278 527.241 216.864 525.836 216.036C524.431 215.207 523.324 214.01 522.515 212.446C521.706 210.882 521.302 209.006 521.302 206.818C521.302 204.624 521.71 202.748 522.525 201.19C523.34 199.626 524.451 198.429 525.856 197.601C527.261 196.772 528.852 196.358 530.629 196.358C531.762 196.358 532.816 196.517 533.791 196.835C534.765 197.153 535.633 197.621 536.396 198.237C537.158 198.847 537.785 199.596 538.275 200.484C538.772 201.366 539.097 202.374 539.249 203.507ZM560.824 206.818C560.824 209.012 560.413 210.892 559.591 212.456C558.775 214.014 557.662 215.207 556.25 216.036C554.845 216.864 553.25 217.278 551.467 217.278C549.684 217.278 548.086 216.864 546.675 216.036C545.269 215.2 544.156 214.004 543.334 212.446C542.518 210.882 542.111 209.006 542.111 206.818C542.111 204.624 542.518 202.748 543.334 201.19C544.156 199.626 545.269 198.429 546.675 197.601C548.086 196.772 549.684 196.358 551.467 196.358C553.25 196.358 554.845 196.772 556.25 197.601C557.662 198.429 558.775 199.626 559.591 201.19C560.413 202.748 560.824 204.624 560.824 206.818ZM557.115 206.818C557.115 205.274 556.873 203.971 556.389 202.911C555.912 201.843 555.249 201.038 554.4 200.494C553.552 199.944 552.574 199.669 551.467 199.669C550.36 199.669 549.382 199.944 548.534 200.494C547.685 201.038 547.019 201.843 546.535 202.911C546.058 203.971 545.819 205.274 545.819 206.818C545.819 208.363 546.058 209.669 546.535 210.736C547.019 211.796 547.685 212.602 548.534 213.152C549.382 213.696 550.36 213.967 551.467 213.967C552.574 213.967 553.552 213.696 554.4 213.152C555.249 212.602 555.912 211.796 556.389 210.736C556.873 209.669 557.115 208.363 557.115 206.818Z" fill="white"/>
<g clip-path="url(#clip0_2560_70208)">
<path d="M440.144 287H397.372C377.093 287 360.5 270.372 360.5 250.049V163.951C360.5 143.628 377.093 127 397.372 127H438.301C439.407 127 440.144 127.739 440.144 128.848C440.144 129.956 439.407 130.695 438.301 130.695H397.372C378.936 130.695 364.187 145.476 364.187 163.951V250.418C364.187 268.524 378.936 283.674 397.372 283.674H440.144C441.25 283.674 441.988 284.413 441.988 285.522C441.988 286.63 440.882 287 440.144 287Z" fill="#A8A8A8"/>
<path d="M580.996 287H539.699C538.593 287 537.856 286.261 537.856 285.152C537.856 284.044 538.593 283.305 539.699 283.305H580.996C599.064 283.305 614.182 268.524 614.182 250.049V163.951C614.182 145.845 599.433 130.695 580.996 130.695H538.593C537.487 130.695 536.75 129.956 536.75 128.848C536.75 127.739 537.487 127 538.593 127H580.996C601.276 127 617.869 143.628 617.869 163.951V250.418C617.5 270.372 600.907 287 580.996 287Z" fill="#A8A8A8"/>
</g>
<g clip-path="url(#clip1_2560_70208)">
<path d="M6.15688e-05 406.896C6.12879e-05 410.109 2.58221 413 6.13272 413C9.6832 413 12.2654 410.43 12.2654 406.896C12.2654 404.005 10.3287 401.756 7.74658 401.113L7.74658 386.336C7.74659 369.952 21.3031 356.459 37.7645 356.459L429.287 356.459C447.685 356.459 462.533 341.681 462.533 323.37L462.533 291.886C465.115 291.244 467.052 288.995 467.052 286.104C467.052 282.891 464.469 280 460.919 280C457.691 280 454.786 282.57 454.786 286.104C454.786 288.995 456.723 291.244 459.305 291.886L459.305 323.37C459.305 339.754 445.749 353.246 429.287 353.246L37.7645 353.246C19.3664 353.246 4.51886 368.024 4.51886 386.336L4.51886 401.113C1.93668 401.756 6.17935e-05 404.326 6.15688e-05 406.896Z" fill="#A8A8A8"/>
<path d="M515.145 291.886L515.145 323.37C515.145 341.681 529.992 356.459 548.39 356.459L940.236 356.459C956.697 356.459 970.253 369.952 970.253 386.336L970.253 401.114C967.671 401.756 965.735 404.005 965.735 406.896C965.735 410.109 968.317 413 971.867 413C975.418 413 978 410.43 978 406.896C978 404.005 976.063 401.756 973.481 401.114L973.481 386.336C973.481 368.024 958.634 353.246 940.236 353.246L548.713 353.246C532.252 353.246 518.695 339.754 518.695 323.37L518.695 291.886C521.277 291.244 523.214 288.995 523.214 286.104C523.214 282.891 520.632 280 517.081 280C513.853 280 510.949 282.57 510.949 286.104C510.949 288.995 512.885 291.244 515.145 291.886Z" fill="#A8A8A8"/>
<path d="M487.709 291.886L487.709 401.113C485.127 401.756 483.19 404.005 483.19 406.896C483.19 410.109 485.772 413 489.323 413C492.551 413 495.455 410.43 495.455 406.896C495.455 404.005 493.519 401.756 490.937 401.113L490.937 291.886C493.519 291.244 495.455 288.995 495.455 286.104C495.455 282.891 492.873 280 489.323 280C486.095 280 483.19 282.57 483.19 286.104C483.19 288.995 485.127 291.244 487.709 291.886Z" fill="#A8A8A8"/>
</g>
<defs>
<clipPath id="clip0_2560_70208">
<rect width="257" height="160" fill="white" transform="translate(360.5 127)"/>
</clipPath>
<clipPath id="clip1_2560_70208">
<rect width="978" height="133" fill="white" transform="translate(978 413) rotate(-180)"/>
</clipPath>
</defs>
</svg>
